<svg width="102" height="66" viewBox="0 0 102 66" fill="none" xmlns="http://www.w3.org/2000/svg">
<path d="M88.6508 62.0051C88.827 61.6426 89.0032 61.2802 89.1794 60.9177C87.8704 60.097 86.3903 59.4476 85.2978 58.3953C84.4721 57.5999 83.6615 56.2556 83.7421 55.2285C83.7974 54.569 85.4136 53.7534 86.4457 53.5117C87.8956 53.1744 89.4564 53.3708 90.9617 53.2348C96.5602 52.7213 98.4834 51.0196 98.3727 45.4513C98.1914 36.5854 97.6376 27.7194 97.0435 18.8685C96.822 15.5407 94.6471 13.4714 91.7018 13.3154C88.6861 13.1593 85.6603 13.0737 82.6395 13.1543C78.7075 13.265 78.6773 13.7282 78.5967 17.6351C78.4457 25.3783 78.2141 33.1417 77.4639 40.8447C76.9605 46.0001 75.012 47.6968 69.8213 48.2355C60.608 49.192 51.3644 49.8465 42.131 50.5715C38.8282 50.8283 35.5155 50.929 32.1977 51.1002C32.7313 54.6294 33.4161 55.6364 37.0662 55.6263C47.7446 55.591 58.428 55.3292 69.1014 54.9365C72.0517 54.8308 74.4733 55.4199 77.0712 56.9C80.7163 58.9793 84.7742 60.3387 88.6508 62.0051ZM18.1259 58.9995C19.9988 56.3362 21.927 54.423 22.8484 52.1121C24.4796 47.9938 27.5507 47.5558 31.3015 47.4098C41.7735 47.007 52.2959 46.8711 62.6823 45.6477C73.5621 44.3638 74.1562 46.0404 74.5035 33.6502C74.7251 25.9069 74.9013 18.1486 74.6848 10.4104C74.5438 5.20964 72.0668 3.48277 66.9869 3.54821C57.7131 3.66904 48.4394 3.57338 39.1656 3.58345C33.4211 3.58345 27.6715 3.55324 21.927 3.64387C17.6023 3.70932 13.2726 3.79995 8.96798 4.15741C6.14859 4.39404 3.80245 5.70303 3.87294 9.03595C4.07936 18.8988 4.0693 28.7817 4.76407 38.6093C5.23733 45.3557 6.71748 46.2468 13.4286 46.5036C16.5954 46.6244 17.7131 47.8629 17.7332 50.9793C17.7483 53.3557 17.9598 55.732 18.1259 58.9995ZM27.9686 50.6722C25.9145 53.6577 24.535 56.0291 22.793 58.0882C21.4538 59.6691 19.8175 61.1392 18.0252 62.1562C15.5834 63.5457 14.2543 62.418 14.5211 59.5885C14.7074 57.5797 14.8484 55.5659 14.9289 53.552C14.9742 52.5501 14.8434 51.5382 14.7628 49.9774C13.63 50.0379 12.4771 50.1335 11.3242 50.1537C5.9623 50.2292 3.63127 48.9756 2.52868 43.8402C1.24989 37.8591 0.529952 31.7169 0.122148 25.6099C-0.215172 20.4947 0.242969 15.3242 0.338626 10.1788C0.449388 4.10705 2.82571 1.2927 8.95284 0.58786C12.4418 0.185089 15.9862 0.210266 19.5104 0.175018C26.4733 0.109573 33.4362 0.129707 40.3991 0.109566C49.3808 0.0894318 58.3626 0.175026 67.3393 0.00384521C73.4966 -0.116982 76.9151 2.39025 78.1385 8.46201C78.2795 9.13664 78.3601 9.82134 78.491 10.6571C83.012 10.4255 87.4073 10.0278 91.8075 10.0127C96.535 9.99755 100.079 13.4563 100.507 18.7779C101.207 27.4224 101.776 36.092 101.988 44.7616C102.189 53.0133 100.029 55.1631 89.8038 57.3078C91.5407 58.5464 92.8648 59.2109 93.7962 60.238C94.5866 61.109 95.5684 62.6093 95.2865 63.4249C94.9945 64.2808 93.3179 65.1316 92.2154 65.1669C85.9825 65.3733 80.4343 63.153 75.0825 60.1172C73.4563 59.1958 71.367 58.6319 69.5042 58.6622C59.7169 58.8283 49.9346 59.2764 40.1524 59.5331C38.355 59.5785 36.5274 59.2764 34.7402 58.9844C30.5161 58.3047 28.9403 55.1178 27.9686 50.6722Z" fill="#E0E0E0"/>
<path d="M36.1096 28.2632C34.2065 28.2229 33.2348 26.778 33.0737 24.6232C32.8875 22.131 34.2619 20.5602 36.6836 20.3991C39.0247 20.238 41.1996 21.7836 41.3456 23.7119C41.5117 25.8768 39.1656 28.1172 36.1096 28.2632Z" fill="#E0E0E0"/>
<path d="M56.6662 25.9527C54.2949 26.134 52.1552 24.6034 52.1149 22.5342C52.0445 18.7935 55.3371 19.5034 57.3912 18.9496C59.2641 18.4411 60.704 19.5034 60.8399 21.6934C60.9759 23.9338 59.1886 25.7513 56.6662 25.9527Z" fill="#E0E0E0"/>
<path d="M18.4884 29.1294C15.674 28.8978 14.652 27.7952 14.5564 25.9324C14.4607 24.0998 14.5664 22.1565 17.0737 21.9047C19.2436 21.6933 20.8244 22.821 20.6684 24.9053C20.5576 26.3603 19.2587 27.7247 18.4884 29.1294Z" fill="#E0E0E0"/>
</svg>
