<svg width="61" height="62" viewBox="0 0 61 62" fill="none" xmlns="http://www.w3.org/2000/svg">
<circle cx="30.5" cy="31.4678" r="30" fill="white" stroke="#6B6B6B"/>
<g clip-path="url(#clip0_1_2933)">
<path fill-rule="evenodd" clip-rule="evenodd" d="M45.128 31.3949C45.223 31.4896 45.2983 31.6022 45.3497 31.7261C45.4011 31.85 45.4276 31.9828 45.4276 32.1169C45.4276 32.251 45.4011 32.3839 45.3497 32.5078C45.2983 32.6316 45.223 32.7442 45.128 32.8389L37.9897 39.9772C37.8471 40.1202 37.6652 40.2176 37.4672 40.2571C37.2691 40.2966 37.0638 40.2764 36.8772 40.1991C36.6907 40.1217 36.5313 39.9907 36.4193 39.8227C36.3072 39.6547 36.2476 39.4572 36.248 39.2552L36.248 34.1564L18.9121 34.1564C18.3712 34.1564 17.8524 33.9415 17.47 33.5591C17.0875 33.1766 16.8726 32.6578 16.8726 32.1169C16.8726 31.576 17.0875 31.0572 17.47 30.6748C17.8524 30.2923 18.3712 30.0774 18.9121 30.0774L36.248 30.0774L36.248 24.9786C36.2476 24.7767 36.3072 24.5791 36.4193 24.4111C36.5313 24.2431 36.6907 24.1121 36.8772 24.0348C37.0638 23.9574 37.2691 23.9372 37.4672 23.9767C37.6652 24.0162 37.8471 24.1136 37.9897 24.2566L45.128 31.3949Z" fill="#343434"/>
</g>
<defs>
<clipPath id="clip0_1_2933">
<rect width="28.5532" height="28.5532" fill="white" transform="translate(45.4258 17.8403) rotate(90)"/>
</clipPath>
</defs>
</svg>
