<svg width="63" height="88" viewBox="0 0 63 88" fill="none" xmlns="http://www.w3.org/2000/svg">
<path fill-rule="evenodd" clip-rule="evenodd" d="M56.7098 56.7444H32.7109C35.434 56.4213 37.9589 54.7129 39.7611 51.9742C41.5633 49.2354 42.5041 45.6769 42.3882 42.0381C42.2723 38.3992 41.1084 34.9597 39.1385 32.4343C37.1686 29.9089 34.5441 28.4916 31.8103 28.4771H23.9709C25.1429 26.3776 25.9812 23.9816 26.4345 21.4357C26.8877 18.8898 26.9465 16.2475 26.6071 13.6704C26.2678 11.0932 25.5374 8.63535 24.4607 6.44706C23.384 4.25877 21.9836 2.38603 20.3452 0.943359L56.7098 0.943359C58.3789 0.946654 59.9788 1.83232 61.1582 3.40587C62.3376 4.97942 63 7.11221 63 9.3359V48.3705C63 52.9958 60.1815 56.7506 56.7098 56.7506V56.7444ZM12.3611 28.4895C13.5101 28.5252 14.6528 28.2544 15.7222 27.6932C16.7915 27.132 17.7659 26.2917 18.588 25.2217C19.4101 24.1517 20.0633 22.8735 20.5093 21.4623C20.9553 20.0511 21.185 18.5354 21.185 17.0042C21.185 15.473 20.9553 13.9573 20.5093 12.5461C20.0633 11.1349 19.4101 9.85673 18.588 8.78669C17.7659 7.71666 16.7915 6.87635 15.7222 6.31516C14.6528 5.75397 13.5101 5.48323 12.3611 5.51885C10.1094 5.58864 7.96752 6.82935 6.39352 8.97567C4.81952 11.122 3.93831 14.0035 3.93831 17.0042C3.93831 20.0048 4.81952 22.8864 6.39352 25.0327C7.96752 27.179 10.1094 28.4197 12.3611 28.4895ZM36.6026 42.6387C36.6026 39.1077 34.4561 36.248 31.8103 36.248H12.3658C10.7417 36.2472 9.13342 36.6727 7.63286 37.5003C6.1323 38.328 4.76887 39.5414 3.62048 41.0714C2.47209 42.6013 1.56126 44.4177 0.940039 46.4168C0.318819 48.416 -0.000612321 50.5586 8.81184e-07 52.7222V60.2133C8.81184e-07 63.5206 2.01585 66.2 4.49833 66.2H5.30094L6.61684 82.4256C6.73991 83.9491 7.28094 85.3583 8.13612 86.3829C8.9913 87.4075 10.1004 87.9752 11.2505 87.9771H13.593C14.7187 87.9765 15.8062 87.4337 16.6552 86.4489C17.5042 85.4641 18.0573 84.1037 18.2127 82.6183L21.7264 49.0233H31.8056C34.4514 49.0233 36.598 46.1636 36.598 42.6387H36.6026Z" fill="white"/>
</svg>
