<svg width="1926" height="2636" viewBox="0 0 1926 2636" fill="none" xmlns="http://www.w3.org/2000/svg">
<path d="M0 2636H1926V0H0V2636ZM1880.26 3.295H1923.59V62.605H1880.26V3.295ZM1880.26 69.195H1923.59V128.505H1880.26V69.195ZM1880.26 135.095H1923.59V194.405H1880.26V135.095ZM1880.26 200.995H1923.59V260.305H1880.26V200.995ZM1880.26 266.895H1923.59V326.205H1880.26V266.895ZM1880.26 332.795H1923.59V392.105H1880.26V332.795ZM1880.26 398.695H1923.59V458.005H1880.26V398.695ZM1880.26 464.595H1923.59V523.905H1880.26V464.595ZM1880.26 530.495H1923.59V589.805H1880.26V530.495ZM1880.26 596.395H1923.59V655.705H1880.26V596.395ZM1880.26 662.295H1923.59V721.605H1880.26V662.295ZM1880.26 728.195H1923.59V787.505H1880.26V728.195ZM1880.26 794.095H1923.59V853.405H1880.26V794.095ZM1880.26 859.995H1923.59V919.305H1880.26V859.995ZM1880.26 925.895H1923.59V985.205H1880.26V925.895ZM1880.26 991.795H1923.59V1051.1H1880.26V991.795ZM1880.26 1057.7H1923.59V1117.01H1880.26V1057.7ZM1880.26 1123.59H1923.59V1182.91H1880.26V1123.59ZM1880.26 1189.49H1923.59V1248.81H1880.26V1189.49ZM1880.26 1255.4H1923.59V1314.71H1880.26V1255.4ZM1880.26 1321.3H1923.59V1380.6H1880.26V1321.3ZM1880.26 1387.2H1923.59V1446.51H1880.26V1387.2ZM1880.26 1453.1H1923.59V1512.41H1880.26V1453.1ZM1880.26 1518.99H1923.59V1578.31H1880.26V1518.99ZM1880.26 1584.9H1923.59V1644.21H1880.26V1584.9ZM1880.26 1650.8H1923.59V1710.1H1880.26V1650.8ZM1880.26 1716.7H1923.59V1776.01H1880.26V1716.7ZM1880.26 1782.6H1923.59V1841.91H1880.26V1782.6ZM1880.26 1848.49H1923.59V1907.81H1880.26V1848.49ZM1880.26 1914.4H1923.59V1973.71H1880.26V1914.4ZM1880.26 1980.3H1923.59V2039.61H1880.26V1980.3ZM1880.26 2046.2H1923.59V2105.51H1880.26V2046.2ZM1880.26 2112.09H1923.59V2171.41H1880.26V2112.09ZM1880.26 2178H1923.59V2237.3H1880.26V2178ZM1880.26 2243.9H1923.59V2303.21H1880.26V2243.9ZM1880.26 2309.8H1923.59V2369.1H1880.26V2309.8ZM1880.26 2375.7H1923.59V2435.01H1880.26V2375.7ZM1880.26 2441.59H1923.59V2500.91H1880.26V2441.59ZM1880.26 2507.5H1923.59V2566.81H1880.26V2507.5ZM1880.26 2573.4H1923.59V2632.71H1880.26V2573.4ZM1832.11 3.295H1875.44V62.605H1832.11V3.295ZM1832.11 69.195H1875.44V128.505H1832.11V69.195ZM1832.11 135.095H1875.44V194.405H1832.11V135.095ZM1832.11 200.995H1875.44V260.305H1832.11V200.995ZM1832.11 266.895H1875.44V326.205H1832.11V266.895ZM1832.11 332.795H1875.44V392.105H1832.11V332.795ZM1832.11 398.695H1875.44V458.005H1832.11V398.695ZM1832.11 464.595H1875.44V523.905H1832.11V464.595ZM1832.11 530.495H1875.44V589.805H1832.11V530.495ZM1832.11 596.395H1875.44V655.705H1832.11V596.395ZM1832.11 662.295H1875.44V721.605H1832.11V662.295ZM1832.11 728.195H1875.44V787.505H1832.11V728.195ZM1832.11 794.095H1875.44V853.405H1832.11V794.095ZM1832.11 859.995H1875.44V919.305H1832.11V859.995ZM1832.11 925.895H1875.44V985.205H1832.11V925.895ZM1832.11 991.795H1875.44V1051.1H1832.11V991.795ZM1832.11 1057.7H1875.44V1117.01H1832.11V1057.7ZM1832.11 1123.59H1875.44V1182.91H1832.11V1123.59ZM1832.11 1189.49H1875.44V1248.81H1832.11V1189.49ZM1832.11 1255.4H1875.44V1314.71H1832.11V1255.4ZM1832.11 1321.3H1875.44V1380.6H1832.11V1321.3ZM1832.11 1387.2H1875.44V1446.51H1832.11V1387.2ZM1832.11 1453.1H1875.44V1512.41H1832.11V1453.1ZM1832.11 1518.99H1875.44V1578.31H1832.11V1518.99ZM1832.11 1584.9H1875.44V1644.21H1832.11V1584.9ZM1832.11 1650.8H1875.44V1710.1H1832.11V1650.8ZM1832.11 1716.7H1875.44V1776.01H1832.11V1716.7ZM1832.11 1782.6H1875.44V1841.91H1832.11V1782.6ZM1832.11 1848.49H1875.44V1907.81H1832.11V1848.49ZM1832.11 1914.4H1875.44V1973.71H1832.11V1914.4ZM1832.11 1980.3H1875.44V2039.61H1832.11V1980.3ZM1832.11 2046.2H1875.44V2105.51H1832.11V2046.2ZM1832.11 2112.09H1875.44V2171.41H1832.11V2112.09ZM1832.11 2178H1875.44V2237.3H1832.11V2178ZM1832.11 2243.9H1875.44V2303.21H1832.11V2243.9ZM1832.11 2309.8H1875.44V2369.1H1832.11V2309.8ZM1832.11 2375.7H1875.44V2435.01H1832.11V2375.7ZM1832.11 2441.59H1875.44V2500.91H1832.11V2441.59ZM1832.11 2507.5H1875.44V2566.81H1832.11V2507.5ZM1832.11 2573.4H1875.44V2632.71H1832.11V2573.4ZM1783.96 3.295H1827.29V62.605H1783.96V3.295ZM1783.96 69.195H1827.29V128.505H1783.96V69.195ZM1783.96 135.095H1827.29V194.405H1783.96V135.095ZM1783.96 200.995H1827.29V260.305H1783.96V200.995ZM1783.96 266.895H1827.29V326.205H1783.96V266.895ZM1783.96 332.795H1827.29V392.105H1783.96V332.795ZM1783.96 398.695H1827.29V458.005H1783.96V398.695ZM1783.96 464.595H1827.29V523.905H1783.96V464.595ZM1783.96 530.495H1827.29V589.805H1783.96V530.495ZM1783.96 596.395H1827.29V655.705H1783.96V596.395ZM1783.96 662.295H1827.29V721.605H1783.96V662.295ZM1783.96 728.195H1827.29V787.505H1783.96V728.195ZM1783.96 794.095H1827.29V853.405H1783.96V794.095ZM1783.96 859.995H1827.29V919.305H1783.96V859.995ZM1783.96 925.895H1827.29V985.205H1783.96V925.895ZM1783.96 991.795H1827.29V1051.1H1783.96V991.795ZM1783.96 1057.7H1827.29V1117.01H1783.96V1057.7ZM1783.96 1123.59H1827.29V1182.91H1783.96V1123.59ZM1783.96 1189.49H1827.29V1248.81H1783.96V1189.49ZM1783.96 1255.4H1827.29V1314.71H1783.96V1255.4ZM1783.96 1321.3H1827.29V1380.6H1783.96V1321.3ZM1783.96 1387.2H1827.29V1446.51H1783.96V1387.2ZM1783.96 1453.1H1827.29V1512.41H1783.96V1453.1ZM1783.96 1518.99H1827.29V1578.31H1783.96V1518.99ZM1783.96 1584.9H1827.29V1644.21H1783.96V1584.9ZM1783.96 1650.8H1827.29V1710.1H1783.96V1650.8ZM1783.96 1716.7H1827.29V1776.01H1783.96V1716.7ZM1783.96 1782.6H1827.29V1841.91H1783.96V1782.6ZM1783.96 1848.49H1827.29V1907.81H1783.96V1848.49ZM1783.96 1914.4H1827.29V1973.71H1783.96V1914.4ZM1783.96 1980.3H1827.29V2039.61H1783.96V1980.3ZM1783.96 2046.2H1827.29V2105.51H1783.96V2046.2ZM1783.96 2112.09H1827.29V2171.41H1783.96V2112.09ZM1783.96 2178H1827.29V2237.3H1783.96V2178ZM1783.96 2243.9H1827.29V2303.21H1783.96V2243.9ZM1783.96 2309.8H1827.29V2369.1H1783.96V2309.8ZM1783.96 2375.7H1827.29V2435.01H1783.96V2375.7ZM1783.96 2441.59H1827.29V2500.91H1783.96V2441.59ZM1783.96 2507.5H1827.29V2566.81H1783.96V2507.5ZM1783.96 2573.4H1827.29V2632.71H1783.96V2573.4ZM1735.81 3.295H1779.14V62.605H1735.81V3.295ZM1735.81 69.195H1779.14V128.505H1735.81V69.195ZM1735.81 135.095H1779.14V194.405H1735.81V135.095ZM1735.81 200.995H1779.14V260.305H1735.81V200.995ZM1735.81 266.895H1779.14V326.205H1735.81V266.895ZM1735.81 332.795H1779.14V392.105H1735.81V332.795ZM1735.81 398.695H1779.14V458.005H1735.81V398.695ZM1735.81 464.595H1779.14V523.905H1735.81V464.595ZM1735.81 530.495H1779.14V589.805H1735.81V530.495ZM1735.81 596.395H1779.14V655.705H1735.81V596.395ZM1735.81 662.295H1779.14V721.605H1735.81V662.295ZM1735.81 728.195H1779.14V787.505H1735.81V728.195ZM1735.81 794.095H1779.14V853.405H1735.81V794.095ZM1735.81 859.995H1779.14V919.305H1735.81V859.995ZM1735.81 925.895H1779.14V985.205H1735.81V925.895ZM1735.81 991.795H1779.14V1051.1H1735.81V991.795ZM1735.81 1057.7H1779.14V1117.01H1735.81V1057.7ZM1735.81 1123.59H1779.14V1182.91H1735.81V1123.59ZM1735.81 1189.49H1779.14V1248.81H1735.81V1189.49ZM1735.81 1255.4H1779.14V1314.71H1735.81V1255.4ZM1735.81 1321.3H1779.14V1380.6H1735.81V1321.3ZM1735.81 1387.2H1779.14V1446.51H1735.81V1387.2ZM1735.81 1453.1H1779.14V1512.41H1735.81V1453.1ZM1735.81 1518.99H1779.14V1578.31H1735.81V1518.99ZM1735.81 1584.9H1779.14V1644.21H1735.81V1584.9ZM1735.81 1650.8H1779.14V1710.1H1735.81V1650.8ZM1735.81 1716.7H1779.14V1776.01H1735.81V1716.7ZM1735.81 1782.6H1779.14V1841.91H1735.81V1782.6ZM1735.81 1848.49H1779.14V1907.81H1735.81V1848.49ZM1735.81 1914.4H1779.14V1973.71H1735.81V1914.4ZM1735.81 1980.3H1779.14V2039.61H1735.81V1980.3ZM1735.81 2046.2H1779.14V2105.51H1735.81V2046.2ZM1735.81 2112.09H1779.14V2171.41H1735.81V2112.09ZM1735.81 2178H1779.14V2237.3H1735.81V2178ZM1735.81 2243.9H1779.14V2303.21H1735.81V2243.9ZM1735.81 2309.8H1779.14V2369.1H1735.81V2309.8ZM1735.81 2375.7H1779.14V2435.01H1735.81V2375.7ZM1735.81 2441.59H1779.14V2500.91H1735.81V2441.59ZM1735.81 2507.5H1779.14V2566.81H1735.81V2507.5ZM1735.81 2573.4H1779.14V2632.71H1735.81V2573.4ZM1687.66 3.295H1730.99V62.605H1687.66V3.295ZM1687.66 69.195H1730.99V128.505H1687.66V69.195ZM1687.66 135.095H1730.99V194.405H1687.66V135.095ZM1687.66 200.995H1730.99V260.305H1687.66V200.995ZM1687.66 266.895H1730.99V326.205H1687.66V266.895ZM1687.66 332.795H1730.99V392.105H1687.66V332.795ZM1687.66 398.695H1730.99V458.005H1687.66V398.695ZM1687.66 464.595H1730.99V523.905H1687.66V464.595ZM1687.66 530.495H1730.99V589.805H1687.66V530.495ZM1687.66 596.395H1730.99V655.705H1687.66V596.395ZM1687.66 662.295H1730.99V721.605H1687.66V662.295ZM1687.66 728.195H1730.99V787.505H1687.66V728.195ZM1687.66 794.095H1730.99V853.405H1687.66V794.095ZM1687.66 859.995H1730.99V919.305H1687.66V859.995ZM1687.66 925.895H1730.99V985.205H1687.66V925.895ZM1687.66 991.795H1730.99V1051.1H1687.66V991.795ZM1687.66 1057.7H1730.99V1117.01H1687.66V1057.7ZM1687.66 1123.59H1730.99V1182.91H1687.66V1123.59ZM1687.66 1189.49H1730.99V1248.81H1687.66V1189.49ZM1687.66 1255.4H1730.99V1314.71H1687.66V1255.4ZM1687.66 1321.3H1730.99V1380.6H1687.66V1321.3ZM1687.66 1387.2H1730.99V1446.51H1687.66V1387.2ZM1687.66 1453.1H1730.99V1512.41H1687.66V1453.1ZM1687.66 1518.99H1730.99V1578.31H1687.66V1518.99ZM1687.66 1584.9H1730.99V1644.21H1687.66V1584.9ZM1687.66 1650.8H1730.99V1710.1H1687.66V1650.8ZM1687.66 1716.7H1730.99V1776.01H1687.66V1716.7ZM1687.66 1782.6H1730.99V1841.91H1687.66V1782.6ZM1687.66 1848.49H1730.99V1907.81H1687.66V1848.49ZM1687.66 1914.4H1730.99V1973.71H1687.66V1914.4ZM1687.66 1980.3H1730.99V2039.61H1687.66V1980.3ZM1687.66 2046.2H1730.99V2105.51H1687.66V2046.2ZM1687.66 2112.09H1730.99V2171.41H1687.66V2112.09ZM1687.66 2178H1730.99V2237.3H1687.66V2178ZM1687.66 2243.9H1730.99V2303.21H1687.66V2243.9ZM1687.66 2309.8H1730.99V2369.1H1687.66V2309.8ZM1687.66 2375.7H1730.99V2435.01H1687.66V2375.7ZM1687.66 2441.59H1730.99V2500.91H1687.66V2441.59ZM1687.66 2507.5H1730.99V2566.81H1687.66V2507.5ZM1687.66 2573.4H1730.99V2632.71H1687.66V2573.4ZM1639.51 3.295H1682.84V62.605H1639.51V3.295ZM1639.51 69.195H1682.84V128.505H1639.51V69.195ZM1639.51 135.095H1682.84V194.405H1639.51V135.095ZM1639.51 200.995H1682.84V260.305H1639.51V200.995ZM1639.51 266.895H1682.84V326.205H1639.51V266.895ZM1639.51 332.795H1682.84V392.105H1639.51V332.795ZM1639.51 398.695H1682.84V458.005H1639.51V398.695ZM1639.51 464.595H1682.84V523.905H1639.51V464.595ZM1639.51 530.495H1682.84V589.805H1639.51V530.495ZM1639.51 596.395H1682.84V655.705H1639.51V596.395ZM1639.51 662.295H1682.84V721.605H1639.51V662.295ZM1639.51 728.195H1682.84V787.505H1639.51V728.195ZM1639.51 794.095H1682.84V853.405H1639.51V794.095ZM1639.51 859.995H1682.84V919.305H1639.51V859.995ZM1639.51 925.895H1682.84V985.205H1639.51V925.895ZM1639.51 991.795H1682.84V1051.1H1639.51V991.795ZM1639.51 1057.7H1682.84V1117.01H1639.51V1057.7ZM1639.51 1123.59H1682.84V1182.91H1639.51V1123.59ZM1639.51 1189.49H1682.84V1248.81H1639.51V1189.49ZM1639.51 1255.4H1682.84V1314.71H1639.51V1255.4ZM1639.51 1321.3H1682.84V1380.6H1639.51V1321.3ZM1639.51 1387.2H1682.84V1446.51H1639.51V1387.2ZM1639.51 1453.1H1682.84V1512.41H1639.51V1453.1ZM1639.51 1518.99H1682.84V1578.31H1639.51V1518.99ZM1639.51 1584.9H1682.84V1644.21H1639.51V1584.9ZM1639.51 1650.8H1682.84V1710.1H1639.51V1650.8ZM1639.51 1716.7H1682.84V1776.01H1639.51V1716.7ZM1639.51 1782.6H1682.84V1841.91H1639.51V1782.6ZM1639.51 1848.49H1682.84V1907.81H1639.51V1848.49ZM1639.51 1914.4H1682.84V1973.71H1639.51V1914.4ZM1639.51 1980.3H1682.84V2039.61H1639.51V1980.3ZM1639.51 2046.2H1682.84V2105.51H1639.51V2046.2ZM1639.51 2112.09H1682.84V2171.41H1639.51V2112.09ZM1639.51 2178H1682.84V2237.3H1639.51V2178ZM1639.51 2243.9H1682.84V2303.21H1639.51V2243.9ZM1639.51 2309.8H1682.84V2369.1H1639.51V2309.8ZM1639.51 2375.7H1682.84V2435.01H1639.51V2375.7ZM1639.51 2441.59H1682.84V2500.91H1639.51V2441.59ZM1639.51 2507.5H1682.84V2566.81H1639.51V2507.5ZM1639.51 2573.4H1682.84V2632.71H1639.51V2573.4ZM1591.36 3.295H1634.69V62.605H1591.36V3.295ZM1591.36 69.195H1634.69V128.505H1591.36V69.195ZM1591.36 135.095H1634.69V194.405H1591.36V135.095ZM1591.36 200.995H1634.69V260.305H1591.36V200.995ZM1591.36 266.895H1634.69V326.205H1591.36V266.895ZM1591.36 332.795H1634.69V392.105H1591.36V332.795ZM1591.36 398.695H1634.69V458.005H1591.36V398.695ZM1591.36 464.595H1634.69V523.905H1591.36V464.595ZM1591.36 530.495H1634.69V589.805H1591.36V530.495ZM1591.36 596.395H1634.69V655.705H1591.36V596.395ZM1591.36 662.295H1634.69V721.605H1591.36V662.295ZM1591.36 728.195H1634.69V787.505H1591.36V728.195ZM1591.36 794.095H1634.69V853.405H1591.36V794.095ZM1591.36 859.995H1634.69V919.305H1591.36V859.995ZM1591.36 925.895H1634.69V985.205H1591.36V925.895ZM1591.36 991.795H1634.69V1051.1H1591.36V991.795ZM1591.36 1057.7H1634.69V1117.01H1591.36V1057.7ZM1591.36 1123.59H1634.69V1182.91H1591.36V1123.59ZM1591.36 1189.49H1634.69V1248.81H1591.36V1189.49ZM1591.36 1255.4H1634.69V1314.71H1591.36V1255.4ZM1591.36 1321.3H1634.69V1380.6H1591.36V1321.3ZM1591.36 1387.2H1634.69V1446.51H1591.36V1387.2ZM1591.36 1453.1H1634.69V1512.41H1591.36V1453.1ZM1591.36 1518.99H1634.69V1578.31H1591.36V1518.99ZM1591.36 1584.9H1634.69V1644.21H1591.36V1584.9ZM1591.36 1650.8H1634.69V1710.1H1591.36V1650.8ZM1591.36 1716.7H1634.69V1776.01H1591.36V1716.7ZM1591.36 1782.6H1634.69V1841.91H1591.36V1782.6ZM1591.36 1848.49H1634.69V1907.81H1591.36V1848.49ZM1591.36 1914.4H1634.69V1973.71H1591.36V1914.4ZM1591.36 1980.3H1634.69V2039.61H1591.36V1980.3ZM1591.36 2046.2H1634.69V2105.51H1591.36V2046.2ZM1591.36 2112.09H1634.69V2171.41H1591.36V2112.09ZM1591.36 2178H1634.69V2237.3H1591.36V2178ZM1591.36 2243.9H1634.69V2303.21H1591.36V2243.9ZM1591.36 2309.8H1634.69V2369.1H1591.36V2309.8ZM1591.36 2375.7H1634.69V2435.01H1591.36V2375.7ZM1591.36 2441.59H1634.69V2500.91H1591.36V2441.59ZM1591.36 2507.5H1634.69V2566.81H1591.36V2507.5ZM1591.36 2573.4H1634.69V2632.71H1591.36V2573.4ZM1543.21 3.295H1586.54V62.605H1543.21V3.295ZM1543.21 69.195H1586.54V128.505H1543.21V69.195ZM1543.21 135.095H1586.54V194.405H1543.21V135.095ZM1543.21 200.995H1586.54V260.305H1543.21V200.995ZM1543.21 266.895H1586.54V326.205H1543.21V266.895ZM1543.21 332.795H1586.54V392.105H1543.21V332.795ZM1543.21 398.695H1586.54V458.005H1543.21V398.695ZM1543.21 464.595H1586.54V523.905H1543.21V464.595ZM1543.21 530.495H1586.54V589.805H1543.21V530.495ZM1543.21 596.395H1586.54V655.705H1543.21V596.395ZM1543.21 662.295H1586.54V721.605H1543.21V662.295ZM1543.21 728.195H1586.54V787.505H1543.21V728.195ZM1543.21 794.095H1586.54V853.405H1543.21V794.095ZM1543.21 859.995H1586.54V919.305H1543.21V859.995ZM1543.21 925.895H1586.54V985.205H1543.21V925.895ZM1543.21 991.795H1586.54V1051.1H1543.21V991.795ZM1543.21 1057.7H1586.54V1117.01H1543.21V1057.7ZM1543.21 1123.59H1586.54V1182.91H1543.21V1123.59ZM1543.21 1189.49H1586.54V1248.81H1543.21V1189.49ZM1543.21 1255.4H1586.54V1314.71H1543.21V1255.4ZM1543.21 1321.3H1586.54V1380.6H1543.21V1321.3ZM1543.21 1387.2H1586.54V1446.51H1543.21V1387.2ZM1543.21 1453.1H1586.54V1512.41H1543.21V1453.1ZM1543.21 1518.99H1586.54V1578.31H1543.21V1518.99ZM1543.21 1584.9H1586.54V1644.21H1543.21V1584.9ZM1543.21 1650.8H1586.54V1710.1H1543.21V1650.8ZM1543.21 1716.7H1586.54V1776.01H1543.21V1716.7ZM1543.21 1782.6H1586.54V1841.91H1543.21V1782.6ZM1543.21 1848.49H1586.54V1907.81H1543.21V1848.49ZM1543.21 1914.4H1586.54V1973.71H1543.21V1914.4ZM1543.21 1980.3H1586.54V2039.61H1543.21V1980.3ZM1543.21 2046.2H1586.54V2105.51H1543.21V2046.2ZM1543.21 2112.09H1586.54V2171.41H1543.21V2112.09ZM1543.21 2178H1586.54V2237.3H1543.21V2178ZM1543.21 2243.9H1586.54V2303.21H1543.21V2243.9ZM1543.21 2309.8H1586.54V2369.1H1543.21V2309.8ZM1543.21 2375.7H1586.54V2435.01H1543.21V2375.7ZM1543.21 2441.59H1586.54V2500.91H1543.21V2441.59ZM1543.21 2507.5H1586.54V2566.81H1543.21V2507.5ZM1543.21 2573.4H1586.54V2632.71H1543.21V2573.4ZM1495.06 3.295H1538.39V62.605H1495.06V3.295ZM1495.06 69.195H1538.39V128.505H1495.06V69.195ZM1495.06 135.095H1538.39V194.405H1495.06V135.095ZM1495.06 200.995H1538.39V260.305H1495.06V200.995ZM1495.06 266.895H1538.39V326.205H1495.06V266.895ZM1495.06 332.795H1538.39V392.105H1495.06V332.795ZM1495.06 398.695H1538.39V458.005H1495.06V398.695ZM1495.06 464.595H1538.39V523.905H1495.06V464.595ZM1495.06 530.495H1538.39V589.805H1495.06V530.495ZM1495.06 596.395H1538.39V655.705H1495.06V596.395ZM1495.06 662.295H1538.39V721.605H1495.06V662.295ZM1495.06 728.195H1538.39V787.505H1495.06V728.195ZM1495.06 794.095H1538.39V853.405H1495.06V794.095ZM1495.06 859.995H1538.39V919.305H1495.06V859.995ZM1495.06 925.895H1538.39V985.205H1495.06V925.895ZM1495.06 991.795H1538.39V1051.1H1495.06V991.795ZM1495.06 1057.7H1538.39V1117.01H1495.06V1057.7ZM1495.06 1123.59H1538.39V1182.91H1495.06V1123.59ZM1495.06 1189.49H1538.39V1248.81H1495.06V1189.49ZM1495.06 1255.4H1538.39V1314.71H1495.06V1255.4ZM1495.06 1321.3H1538.39V1380.6H1495.06V1321.3ZM1495.06 1387.2H1538.39V1446.51H1495.06V1387.2ZM1495.06 1453.1H1538.39V1512.41H1495.06V1453.1ZM1495.06 1518.99H1538.39V1578.31H1495.06V1518.99ZM1495.06 1584.9H1538.39V1644.21H1495.06V1584.9ZM1495.06 1650.8H1538.39V1710.1H1495.06V1650.8ZM1495.06 1716.7H1538.39V1776.01H1495.06V1716.7ZM1495.06 1782.6H1538.39V1841.91H1495.06V1782.6ZM1495.06 1848.49H1538.39V1907.81H1495.06V1848.49ZM1495.06 1914.4H1538.39V1973.71H1495.06V1914.4ZM1495.06 1980.3H1538.39V2039.61H1495.06V1980.3ZM1495.06 2046.2H1538.39V2105.51H1495.06V2046.2ZM1495.06 2112.09H1538.39V2171.41H1495.06V2112.09ZM1495.06 2178H1538.39V2237.3H1495.06V2178ZM1495.06 2243.9H1538.39V2303.21H1495.06V2243.9ZM1495.06 2309.8H1538.39V2369.1H1495.06V2309.8ZM1495.06 2375.7H1538.39V2435.01H1495.06V2375.7ZM1495.06 2441.59H1538.39V2500.91H1495.06V2441.59ZM1495.06 2507.5H1538.39V2566.81H1495.06V2507.5ZM1495.06 2573.4H1538.39V2632.71H1495.06V2573.4ZM1446.91 3.295H1490.24V62.605H1446.91V3.295ZM1446.91 69.195H1490.24V128.505H1446.91V69.195ZM1446.91 135.095H1490.24V194.405H1446.91V135.095ZM1446.91 200.995H1490.24V260.305H1446.91V200.995ZM1446.91 266.895H1490.24V326.205H1446.91V266.895ZM1446.91 332.795H1490.24V392.105H1446.91V332.795ZM1446.91 398.695H1490.24V458.005H1446.91V398.695ZM1446.91 464.595H1490.24V523.905H1446.91V464.595ZM1446.91 530.495H1490.24V589.805H1446.91V530.495ZM1446.91 596.395H1490.24V655.705H1446.91V596.395ZM1446.91 662.295H1490.24V721.605H1446.91V662.295ZM1446.91 728.195H1490.24V787.505H1446.91V728.195ZM1446.91 794.095H1490.24V853.405H1446.91V794.095ZM1446.91 859.995H1490.24V919.305H1446.91V859.995ZM1446.91 925.895H1490.24V985.205H1446.91V925.895ZM1446.91 991.795H1490.24V1051.1H1446.91V991.795ZM1446.91 1057.7H1490.24V1117.01H1446.91V1057.7ZM1446.91 1123.59H1490.24V1182.91H1446.91V1123.59ZM1446.91 1189.49H1490.24V1248.81H1446.91V1189.49ZM1446.91 1255.4H1490.24V1314.71H1446.91V1255.4ZM1446.91 1321.3H1490.24V1380.6H1446.91V1321.3ZM1446.91 1387.2H1490.24V1446.51H1446.91V1387.2ZM1446.91 1453.1H1490.24V1512.41H1446.91V1453.1ZM1446.91 1518.99H1490.24V1578.31H1446.91V1518.99ZM1446.91 1584.9H1490.24V1644.21H1446.91V1584.9ZM1446.91 1650.8H1490.24V1710.1H1446.91V1650.8ZM1446.91 1716.7H1490.24V1776.01H1446.91V1716.7ZM1446.91 1782.6H1490.24V1841.91H1446.91V1782.6ZM1446.91 1848.49H1490.24V1907.81H1446.91V1848.49ZM1446.91 1914.4H1490.24V1973.71H1446.91V1914.4ZM1446.91 1980.3H1490.24V2039.61H1446.91V1980.3ZM1446.91 2046.2H1490.24V2105.51H1446.91V2046.2ZM1446.91 2112.09H1490.24V2171.41H1446.91V2112.09ZM1446.91 2178H1490.24V2237.3H1446.91V2178ZM1446.91 2243.9H1490.24V2303.21H1446.91V2243.9ZM1446.91 2309.8H1490.24V2369.1H1446.91V2309.8ZM1446.91 2375.7H1490.24V2435.01H1446.91V2375.7ZM1446.91 2441.59H1490.24V2500.91H1446.91V2441.59ZM1446.91 2507.5H1490.24V2566.81H1446.91V2507.5ZM1446.91 2573.4H1490.24V2632.71H1446.91V2573.4ZM1398.76 3.295H1442.09V62.605H1398.76V3.295ZM1398.76 69.195H1442.09V128.505H1398.76V69.195ZM1398.76 135.095H1442.09V194.405H1398.76V135.095ZM1398.76 200.995H1442.09V260.305H1398.76V200.995ZM1398.76 266.895H1442.09V326.205H1398.76V266.895ZM1398.76 332.795H1442.09V392.105H1398.76V332.795ZM1398.76 398.695H1442.09V458.005H1398.76V398.695ZM1398.76 464.595H1442.09V523.905H1398.76V464.595ZM1398.76 530.495H1442.09V589.805H1398.76V530.495ZM1398.76 596.395H1442.09V655.705H1398.76V596.395ZM1398.76 662.295H1442.09V721.605H1398.76V662.295ZM1398.76 728.195H1442.09V787.505H1398.76V728.195ZM1398.76 794.095H1442.09V853.405H1398.76V794.095ZM1398.76 859.995H1442.09V919.305H1398.76V859.995ZM1398.76 925.895H1442.09V985.205H1398.76V925.895ZM1398.76 991.795H1442.09V1051.1H1398.76V991.795ZM1398.76 1057.7H1442.09V1117.01H1398.76V1057.7ZM1398.76 1123.59H1442.09V1182.91H1398.76V1123.59ZM1398.76 1189.49H1442.09V1248.81H1398.76V1189.49ZM1398.76 1255.4H1442.09V1314.71H1398.76V1255.4ZM1398.76 1321.3H1442.09V1380.6H1398.76V1321.3ZM1398.76 1387.2H1442.09V1446.51H1398.76V1387.2ZM1398.76 1453.1H1442.09V1512.41H1398.76V1453.1ZM1398.76 1518.99H1442.09V1578.31H1398.76V1518.99ZM1398.76 1584.9H1442.09V1644.21H1398.76V1584.9ZM1398.76 1650.8H1442.09V1710.1H1398.76V1650.8ZM1398.76 1716.7H1442.09V1776.01H1398.76V1716.7ZM1398.76 1782.6H1442.09V1841.91H1398.76V1782.6ZM1398.76 1848.49H1442.09V1907.81H1398.76V1848.49ZM1398.76 1914.4H1442.09V1973.71H1398.76V1914.4ZM1398.76 1980.3H1442.09V2039.61H1398.76V1980.3ZM1398.76 2046.2H1442.09V2105.51H1398.76V2046.2ZM1398.76 2112.09H1442.09V2171.41H1398.76V2112.09ZM1398.76 2178H1442.09V2237.3H1398.76V2178ZM1398.76 2243.9H1442.09V2303.21H1398.76V2243.9ZM1398.76 2309.8H1442.09V2369.1H1398.76V2309.8ZM1398.76 2375.7H1442.09V2435.01H1398.76V2375.7ZM1398.76 2441.59H1442.09V2500.91H1398.76V2441.59ZM1398.76 2507.5H1442.09V2566.81H1398.76V2507.5ZM1398.76 2573.4H1442.09V2632.71H1398.76V2573.4ZM1350.61 3.295H1393.94V62.605H1350.61V3.295ZM1350.61 69.195H1393.94V128.505H1350.61V69.195ZM1350.61 135.095H1393.94V194.405H1350.61V135.095ZM1350.61 200.995H1393.94V260.305H1350.61V200.995ZM1350.61 266.895H1393.94V326.205H1350.61V266.895ZM1350.61 332.795H1393.94V392.105H1350.61V332.795ZM1350.61 398.695H1393.94V458.005H1350.61V398.695ZM1350.61 464.595H1393.94V523.905H1350.61V464.595ZM1350.61 530.495H1393.94V589.805H1350.61V530.495ZM1350.61 596.395H1393.94V655.705H1350.61V596.395ZM1350.61 662.295H1393.94V721.605H1350.61V662.295ZM1350.61 728.195H1393.94V787.505H1350.61V728.195ZM1350.61 794.095H1393.94V853.405H1350.61V794.095ZM1350.61 859.995H1393.94V919.305H1350.61V859.995ZM1350.61 925.895H1393.94V985.205H1350.61V925.895ZM1350.61 991.795H1393.94V1051.1H1350.61V991.795ZM1350.61 1057.7H1393.94V1117.01H1350.61V1057.7ZM1350.61 1123.59H1393.94V1182.91H1350.61V1123.59ZM1350.61 1189.49H1393.94V1248.81H1350.61V1189.49ZM1350.61 1255.4H1393.94V1314.71H1350.61V1255.4ZM1350.61 1321.3H1393.94V1380.6H1350.61V1321.3ZM1350.61 1387.2H1393.94V1446.51H1350.61V1387.2ZM1350.61 1453.1H1393.94V1512.41H1350.61V1453.1ZM1350.61 1518.99H1393.94V1578.31H1350.61V1518.99ZM1350.61 1584.9H1393.94V1644.21H1350.61V1584.9ZM1350.61 1650.8H1393.94V1710.1H1350.61V1650.8ZM1350.61 1716.7H1393.94V1776.01H1350.61V1716.7ZM1350.61 1782.6H1393.94V1841.91H1350.61V1782.6ZM1350.61 1848.49H1393.94V1907.81H1350.61V1848.49ZM1350.61 1914.4H1393.94V1973.71H1350.61V1914.4ZM1350.61 1980.3H1393.94V2039.61H1350.61V1980.3ZM1350.61 2046.2H1393.94V2105.51H1350.61V2046.2ZM1350.61 2112.09H1393.94V2171.41H1350.61V2112.09ZM1350.61 2178H1393.94V2237.3H1350.61V2178ZM1350.61 2243.9H1393.94V2303.21H1350.61V2243.9ZM1350.61 2309.8H1393.94V2369.1H1350.61V2309.8ZM1350.61 2375.7H1393.94V2435.01H1350.61V2375.7ZM1350.61 2441.59H1393.94V2500.91H1350.61V2441.59ZM1350.61 2507.5H1393.94V2566.81H1350.61V2507.5ZM1350.61 2573.4H1393.94V2632.71H1350.61V2573.4ZM1302.46 3.295H1345.79V62.605H1302.46V3.295ZM1302.46 69.195H1345.79V128.505H1302.46V69.195ZM1302.46 135.095H1345.79V194.405H1302.46V135.095ZM1302.46 200.995H1345.79V260.305H1302.46V200.995ZM1302.46 266.895H1345.79V326.205H1302.46V266.895ZM1302.46 332.795H1345.79V392.105H1302.46V332.795ZM1302.46 398.695H1345.79V458.005H1302.46V398.695ZM1302.46 464.595H1345.79V523.905H1302.46V464.595ZM1302.46 530.495H1345.79V589.805H1302.46V530.495ZM1302.46 596.395H1345.79V655.705H1302.46V596.395ZM1302.46 662.295H1345.79V721.605H1302.46V662.295ZM1302.46 728.195H1345.79V787.505H1302.46V728.195ZM1302.46 794.095H1345.79V853.405H1302.46V794.095ZM1302.46 859.995H1345.79V919.305H1302.46V859.995ZM1302.46 925.895H1345.79V985.205H1302.46V925.895ZM1302.46 991.795H1345.79V1051.1H1302.46V991.795ZM1302.46 1057.7H1345.79V1117.01H1302.46V1057.7ZM1302.46 1123.59H1345.79V1182.91H1302.46V1123.59ZM1302.46 1189.49H1345.79V1248.81H1302.46V1189.49ZM1302.46 1255.4H1345.79V1314.71H1302.46V1255.4ZM1302.46 1321.3H1345.79V1380.6H1302.46V1321.3ZM1302.46 1387.2H1345.79V1446.51H1302.46V1387.2ZM1302.46 1453.1H1345.79V1512.41H1302.46V1453.1ZM1302.46 1518.99H1345.79V1578.31H1302.46V1518.99ZM1302.46 1584.9H1345.79V1644.21H1302.46V1584.9ZM1302.46 1650.8H1345.79V1710.1H1302.46V1650.8ZM1302.46 1716.7H1345.79V1776.01H1302.46V1716.7ZM1302.46 1782.6H1345.79V1841.91H1302.46V1782.6ZM1302.46 1848.49H1345.79V1907.81H1302.46V1848.49ZM1302.46 1914.4H1345.79V1973.71H1302.46V1914.4ZM1302.46 1980.3H1345.79V2039.61H1302.46V1980.3ZM1302.46 2046.2H1345.79V2105.51H1302.46V2046.2ZM1302.46 2112.09H1345.79V2171.41H1302.46V2112.09ZM1302.46 2178H1345.79V2237.3H1302.46V2178ZM1302.46 2243.9H1345.79V2303.21H1302.46V2243.9ZM1302.46 2309.8H1345.79V2369.1H1302.46V2309.8ZM1302.46 2375.7H1345.79V2435.01H1302.46V2375.7ZM1302.46 2441.59H1345.79V2500.91H1302.46V2441.59ZM1302.46 2507.5H1345.79V2566.81H1302.46V2507.5ZM1302.46 2573.4H1345.79V2632.71H1302.46V2573.4ZM1254.31 3.295H1297.64V62.605H1254.31V3.295ZM1254.31 69.195H1297.64V128.505H1254.31V69.195ZM1254.31 135.095H1297.64V194.405H1254.31V135.095ZM1254.31 200.995H1297.64V260.305H1254.31V200.995ZM1254.31 266.895H1297.64V326.205H1254.31V266.895ZM1254.31 332.795H1297.64V392.105H1254.31V332.795ZM1254.31 398.695H1297.64V458.005H1254.31V398.695ZM1254.31 464.595H1297.64V523.905H1254.31V464.595ZM1254.31 530.495H1297.64V589.805H1254.31V530.495ZM1254.31 596.395H1297.64V655.705H1254.31V596.395ZM1254.31 662.295H1297.64V721.605H1254.31V662.295ZM1254.31 728.195H1297.64V787.505H1254.31V728.195ZM1254.31 794.095H1297.64V853.405H1254.31V794.095ZM1254.31 859.995H1297.64V919.305H1254.31V859.995ZM1254.31 925.895H1297.64V985.205H1254.31V925.895ZM1254.31 991.795H1297.64V1051.1H1254.31V991.795ZM1254.31 1057.7H1297.64V1117.01H1254.31V1057.7ZM1254.31 1123.59H1297.64V1182.91H1254.31V1123.59ZM1254.31 1189.49H1297.64V1248.81H1254.31V1189.49ZM1254.31 1255.4H1297.64V1314.71H1254.31V1255.4ZM1254.31 1321.3H1297.64V1380.6H1254.31V1321.3ZM1254.31 1387.2H1297.64V1446.51H1254.31V1387.2ZM1254.31 1453.1H1297.64V1512.41H1254.31V1453.1ZM1254.31 1518.99H1297.64V1578.31H1254.31V1518.99ZM1254.31 1584.9H1297.64V1644.21H1254.31V1584.9ZM1254.31 1650.8H1297.64V1710.1H1254.31V1650.8ZM1254.31 1716.7H1297.64V1776.01H1254.31V1716.7ZM1254.31 1782.6H1297.64V1841.91H1254.31V1782.6ZM1254.31 1848.49H1297.64V1907.81H1254.31V1848.49ZM1254.31 1914.4H1297.64V1973.71H1254.31V1914.4ZM1254.31 1980.3H1297.64V2039.61H1254.31V1980.3ZM1254.31 2046.2H1297.64V2105.51H1254.31V2046.2ZM1254.31 2112.09H1297.64V2171.41H1254.31V2112.09ZM1254.31 2178H1297.64V2237.3H1254.31V2178ZM1254.31 2243.9H1297.64V2303.21H1254.31V2243.9ZM1254.31 2309.8H1297.64V2369.1H1254.31V2309.8ZM1254.31 2375.7H1297.64V2435.01H1254.31V2375.7ZM1254.31 2441.59H1297.64V2500.91H1254.31V2441.59ZM1254.31 2507.5H1297.64V2566.81H1254.31V2507.5ZM1254.31 2573.4H1297.64V2632.71H1254.31V2573.4ZM1206.16 3.295H1249.49V62.605H1206.16V3.295ZM1206.16 69.195H1249.49V128.505H1206.16V69.195ZM1206.16 135.095H1249.49V194.405H1206.16V135.095ZM1206.16 200.995H1249.49V260.305H1206.16V200.995ZM1206.16 266.895H1249.49V326.205H1206.16V266.895ZM1206.16 332.795H1249.49V392.105H1206.16V332.795ZM1206.16 398.695H1249.49V458.005H1206.16V398.695ZM1206.16 464.595H1249.49V523.905H1206.16V464.595ZM1206.16 530.495H1249.49V589.805H1206.16V530.495ZM1206.16 596.395H1249.49V655.705H1206.16V596.395ZM1206.16 662.295H1249.49V721.605H1206.16V662.295ZM1206.16 728.195H1249.49V787.505H1206.16V728.195ZM1206.16 794.095H1249.49V853.405H1206.16V794.095ZM1206.16 859.995H1249.49V919.305H1206.16V859.995ZM1206.16 925.895H1249.49V985.205H1206.16V925.895ZM1206.16 991.795H1249.49V1051.1H1206.16V991.795ZM1206.16 1057.7H1249.49V1117.01H1206.16V1057.7ZM1206.16 1123.59H1249.49V1182.91H1206.16V1123.59ZM1206.16 1189.49H1249.49V1248.81H1206.16V1189.49ZM1206.16 1255.4H1249.49V1314.71H1206.16V1255.4ZM1206.16 1321.3H1249.49V1380.6H1206.16V1321.3ZM1206.16 1387.2H1249.49V1446.51H1206.16V1387.2ZM1206.16 1453.1H1249.49V1512.41H1206.16V1453.1ZM1206.16 1518.99H1249.49V1578.31H1206.16V1518.99ZM1206.16 1584.9H1249.49V1644.21H1206.16V1584.9ZM1206.16 1650.8H1249.49V1710.1H1206.16V1650.8ZM1206.16 1716.7H1249.49V1776.01H1206.16V1716.7ZM1206.16 1782.6H1249.49V1841.91H1206.16V1782.6ZM1206.16 1848.49H1249.49V1907.81H1206.16V1848.49ZM1206.16 1914.4H1249.49V1973.71H1206.16V1914.4ZM1206.16 1980.3H1249.49V2039.61H1206.16V1980.3ZM1206.16 2046.2H1249.49V2105.51H1206.16V2046.2ZM1206.16 2112.09H1249.49V2171.41H1206.16V2112.09ZM1206.16 2178H1249.49V2237.3H1206.16V2178ZM1206.16 2243.9H1249.49V2303.21H1206.16V2243.9ZM1206.16 2309.8H1249.49V2369.1H1206.16V2309.8ZM1206.16 2375.7H1249.49V2435.01H1206.16V2375.7ZM1206.16 2441.59H1249.49V2500.91H1206.16V2441.59ZM1206.16 2507.5H1249.49V2566.81H1206.16V2507.5ZM1206.16 2573.4H1249.49V2632.71H1206.16V2573.4ZM1158.01 3.295H1201.34V62.605H1158.01V3.295ZM1158.01 69.195H1201.34V128.505H1158.01V69.195ZM1158.01 135.095H1201.34V194.405H1158.01V135.095ZM1158.01 200.995H1201.34V260.305H1158.01V200.995ZM1158.01 266.895H1201.34V326.205H1158.01V266.895ZM1158.01 332.795H1201.34V392.105H1158.01V332.795ZM1158.01 398.695H1201.34V458.005H1158.01V398.695ZM1158.01 464.595H1201.34V523.905H1158.01V464.595ZM1158.01 530.495H1201.34V589.805H1158.01V530.495ZM1158.01 596.395H1201.34V655.705H1158.01V596.395ZM1158.01 662.295H1201.34V721.605H1158.01V662.295ZM1158.01 728.195H1201.34V787.505H1158.01V728.195ZM1158.01 794.095H1201.34V853.405H1158.01V794.095ZM1158.01 859.995H1201.34V919.305H1158.01V859.995ZM1158.01 925.895H1201.34V985.205H1158.01V925.895ZM1158.01 991.795H1201.34V1051.1H1158.01V991.795ZM1158.01 1057.7H1201.34V1117.01H1158.01V1057.7ZM1158.01 1123.59H1201.34V1182.91H1158.01V1123.59ZM1158.01 1189.49H1201.34V1248.81H1158.01V1189.49ZM1158.01 1255.4H1201.34V1314.71H1158.01V1255.4ZM1158.01 1321.3H1201.34V1380.6H1158.01V1321.3ZM1158.01 1387.2H1201.34V1446.51H1158.01V1387.2ZM1158.01 1453.1H1201.34V1512.41H1158.01V1453.1ZM1158.01 1518.99H1201.34V1578.31H1158.01V1518.99ZM1158.01 1584.9H1201.34V1644.21H1158.01V1584.9ZM1158.01 1650.8H1201.34V1710.1H1158.01V1650.8ZM1158.01 1716.7H1201.34V1776.01H1158.01V1716.7ZM1158.01 1782.6H1201.34V1841.91H1158.01V1782.6ZM1158.01 1848.49H1201.34V1907.81H1158.01V1848.49ZM1158.01 1914.4H1201.34V1973.71H1158.01V1914.4ZM1158.01 1980.3H1201.34V2039.61H1158.01V1980.3ZM1158.01 2046.2H1201.34V2105.51H1158.01V2046.2ZM1158.01 2112.09H1201.34V2171.41H1158.01V2112.09ZM1158.01 2178H1201.34V2237.3H1158.01V2178ZM1158.01 2243.9H1201.34V2303.21H1158.01V2243.9ZM1158.01 2309.8H1201.34V2369.1H1158.01V2309.8ZM1158.01 2375.7H1201.34V2435.01H1158.01V2375.7ZM1158.01 2441.59H1201.34V2500.91H1158.01V2441.59ZM1158.01 2507.5H1201.34V2566.81H1158.01V2507.5ZM1158.01 2573.4H1201.34V2632.71H1158.01V2573.4ZM1109.86 3.295H1153.19V62.605H1109.86V3.295ZM1109.86 69.195H1153.19V128.505H1109.86V69.195ZM1109.86 135.095H1153.19V194.405H1109.86V135.095ZM1109.86 200.995H1153.19V260.305H1109.86V200.995ZM1109.86 266.895H1153.19V326.205H1109.86V266.895ZM1109.86 332.795H1153.19V392.105H1109.86V332.795ZM1109.86 398.695H1153.19V458.005H1109.86V398.695ZM1109.86 464.595H1153.19V523.905H1109.86V464.595ZM1109.86 530.495H1153.19V589.805H1109.86V530.495ZM1109.86 596.395H1153.19V655.705H1109.86V596.395ZM1109.86 662.295H1153.19V721.605H1109.86V662.295ZM1109.86 728.195H1153.19V787.505H1109.86V728.195ZM1109.86 794.095H1153.19V853.405H1109.86V794.095ZM1109.86 859.995H1153.19V919.305H1109.86V859.995ZM1109.86 925.895H1153.19V985.205H1109.86V925.895ZM1109.86 991.795H1153.19V1051.1H1109.86V991.795ZM1109.86 1057.7H1153.19V1117.01H1109.86V1057.7ZM1109.86 1123.59H1153.19V1182.91H1109.86V1123.59ZM1109.86 1189.49H1153.19V1248.81H1109.86V1189.49ZM1109.86 1255.4H1153.19V1314.71H1109.86V1255.4ZM1109.86 1321.3H1153.19V1380.6H1109.86V1321.3ZM1109.86 1387.2H1153.19V1446.51H1109.86V1387.2ZM1109.86 1453.1H1153.19V1512.41H1109.86V1453.1ZM1109.86 1518.99H1153.19V1578.31H1109.86V1518.99ZM1109.86 1584.9H1153.19V1644.21H1109.86V1584.9ZM1109.86 1650.8H1153.19V1710.1H1109.86V1650.8ZM1109.86 1716.7H1153.19V1776.01H1109.86V1716.7ZM1109.86 1782.6H1153.19V1841.91H1109.86V1782.6ZM1109.86 1848.49H1153.19V1907.81H1109.86V1848.49ZM1109.86 1914.4H1153.19V1973.71H1109.86V1914.4ZM1109.86 1980.3H1153.19V2039.61H1109.86V1980.3ZM1109.86 2046.2H1153.19V2105.51H1109.86V2046.2ZM1109.86 2112.09H1153.19V2171.41H1109.86V2112.09ZM1109.86 2178H1153.19V2237.3H1109.86V2178ZM1109.86 2243.9H1153.19V2303.21H1109.86V2243.9ZM1109.86 2309.8H1153.19V2369.1H1109.86V2309.8ZM1109.86 2375.7H1153.19V2435.01H1109.86V2375.7ZM1109.86 2441.59H1153.19V2500.91H1109.86V2441.59ZM1109.86 2507.5H1153.19V2566.81H1109.86V2507.5ZM1109.86 2573.4H1153.19V2632.71H1109.86V2573.4ZM1061.71 3.295H1105.04V62.605H1061.71V3.295ZM1061.71 69.195H1105.04V128.505H1061.71V69.195ZM1061.71 135.095H1105.04V194.405H1061.71V135.095ZM1061.71 200.995H1105.04V260.305H1061.71V200.995ZM1061.71 266.895H1105.04V326.205H1061.71V266.895ZM1061.71 332.795H1105.04V392.105H1061.71V332.795ZM1061.71 398.695H1105.04V458.005H1061.71V398.695ZM1061.71 464.595H1105.04V523.905H1061.71V464.595ZM1061.71 530.495H1105.04V589.805H1061.71V530.495ZM1061.71 596.395H1105.04V655.705H1061.71V596.395ZM1061.71 662.295H1105.04V721.605H1061.71V662.295ZM1061.71 728.195H1105.04V787.505H1061.71V728.195ZM1061.71 794.095H1105.04V853.405H1061.71V794.095ZM1061.71 859.995H1105.04V919.305H1061.71V859.995ZM1061.71 925.895H1105.04V985.205H1061.71V925.895ZM1061.71 991.795H1105.04V1051.1H1061.71V991.795ZM1061.71 1057.7H1105.04V1117.01H1061.71V1057.7ZM1061.71 1123.59H1105.04V1182.91H1061.71V1123.59ZM1061.71 1189.49H1105.04V1248.81H1061.71V1189.49ZM1061.71 1255.4H1105.04V1314.71H1061.71V1255.4ZM1061.71 1321.3H1105.04V1380.6H1061.71V1321.3ZM1061.71 1387.2H1105.04V1446.51H1061.71V1387.2ZM1061.71 1453.1H1105.04V1512.41H1061.71V1453.1ZM1061.71 1518.99H1105.04V1578.31H1061.71V1518.99ZM1061.71 1584.9H1105.04V1644.21H1061.71V1584.9ZM1061.71 1650.8H1105.04V1710.1H1061.71V1650.8ZM1061.71 1716.7H1105.04V1776.01H1061.71V1716.7ZM1061.71 1782.6H1105.04V1841.91H1061.71V1782.6ZM1061.71 1848.49H1105.04V1907.81H1061.71V1848.49ZM1061.71 1914.4H1105.04V1973.71H1061.71V1914.4ZM1061.71 1980.3H1105.04V2039.61H1061.71V1980.3ZM1061.71 2046.2H1105.04V2105.51H1061.71V2046.2ZM1061.71 2112.09H1105.04V2171.41H1061.71V2112.09ZM1061.71 2178H1105.04V2237.3H1061.71V2178ZM1061.71 2243.9H1105.04V2303.21H1061.71V2243.9ZM1061.71 2309.8H1105.04V2369.1H1061.71V2309.8ZM1061.71 2375.7H1105.04V2435.01H1061.71V2375.7ZM1061.71 2441.59H1105.04V2500.91H1061.71V2441.59ZM1061.71 2507.5H1105.04V2566.81H1061.71V2507.5ZM1061.71 2573.4H1105.04V2632.71H1061.71V2573.4ZM1013.56 3.295H1056.89V62.605H1013.56V3.295ZM1013.56 69.195H1056.89V128.505H1013.56V69.195ZM1013.56 135.095H1056.89V194.405H1013.56V135.095ZM1013.56 200.995H1056.89V260.305H1013.56V200.995ZM1013.56 266.895H1056.89V326.205H1013.56V266.895ZM1013.56 332.795H1056.89V392.105H1013.56V332.795ZM1013.56 398.695H1056.89V458.005H1013.56V398.695ZM1013.56 464.595H1056.89V523.905H1013.56V464.595ZM1013.56 530.495H1056.89V589.805H1013.56V530.495ZM1013.56 596.395H1056.89V655.705H1013.56V596.395ZM1013.56 662.295H1056.89V721.605H1013.56V662.295ZM1013.56 728.195H1056.89V787.505H1013.56V728.195ZM1013.56 794.095H1056.89V853.405H1013.56V794.095ZM1013.56 859.995H1056.89V919.305H1013.56V859.995ZM1013.56 925.895H1056.89V985.205H1013.56V925.895ZM1013.56 991.795H1056.89V1051.1H1013.56V991.795ZM1013.56 1057.7H1056.89V1117.01H1013.56V1057.7ZM1013.56 1123.59H1056.89V1182.91H1013.56V1123.59ZM1013.56 1189.49H1056.89V1248.81H1013.56V1189.49ZM1013.56 1255.4H1056.89V1314.71H1013.56V1255.4ZM1013.56 1321.3H1056.89V1380.6H1013.56V1321.3ZM1013.56 1387.2H1056.89V1446.51H1013.56V1387.2ZM1013.56 1453.1H1056.89V1512.41H1013.56V1453.1ZM1013.56 1518.99H1056.89V1578.31H1013.56V1518.99ZM1013.56 1584.9H1056.89V1644.21H1013.56V1584.9ZM1013.56 1650.8H1056.89V1710.1H1013.56V1650.8ZM1013.56 1716.7H1056.89V1776.01H1013.56V1716.7ZM1013.56 1782.6H1056.89V1841.91H1013.56V1782.6ZM1013.56 1848.49H1056.89V1907.81H1013.56V1848.49ZM1013.56 1914.4H1056.89V1973.71H1013.56V1914.4ZM1013.56 1980.3H1056.89V2039.61H1013.56V1980.3ZM1013.56 2046.2H1056.89V2105.51H1013.56V2046.2ZM1013.56 2112.09H1056.89V2171.41H1013.56V2112.09ZM1013.56 2178H1056.89V2237.3H1013.56V2178ZM1013.56 2243.9H1056.89V2303.21H1013.56V2243.9ZM1013.56 2309.8H1056.89V2369.1H1013.56V2309.8ZM1013.56 2375.7H1056.89V2435.01H1013.56V2375.7ZM1013.56 2441.59H1056.89V2500.91H1013.56V2441.59ZM1013.56 2507.5H1056.89V2566.81H1013.56V2507.5ZM1013.56 2573.4H1056.89V2632.71H1013.56V2573.4ZM965.408 3.295H1008.74V62.605H965.408V3.295ZM965.408 69.195H1008.74V128.505H965.408V69.195ZM965.408 135.095H1008.74V194.405H965.408V135.095ZM965.408 200.995H1008.74V260.305H965.408V200.995ZM965.408 266.895H1008.74V326.205H965.408V266.895ZM965.408 332.795H1008.74V392.105H965.408V332.795ZM965.408 398.695H1008.74V458.005H965.408V398.695ZM965.408 464.595H1008.74V523.905H965.408V464.595ZM965.408 530.495H1008.74V589.805H965.408V530.495ZM965.408 596.395H1008.74V655.705H965.408V596.395ZM965.408 662.295H1008.74V721.605H965.408V662.295ZM965.408 728.195H1008.74V787.505H965.408V728.195ZM965.408 794.095H1008.74V853.405H965.408V794.095ZM965.408 859.995H1008.74V919.305H965.408V859.995ZM965.408 925.895H1008.74V985.205H965.408V925.895ZM965.408 991.795H1008.74V1051.1H965.408V991.795ZM965.408 1057.7H1008.74V1117.01H965.408V1057.7ZM965.408 1123.59H1008.74V1182.91H965.408V1123.59ZM965.408 1189.49H1008.74V1248.81H965.408V1189.49ZM965.408 1255.4H1008.74V1314.71H965.408V1255.4ZM965.408 1321.3H1008.74V1380.6H965.408V1321.3ZM965.408 1387.2H1008.74V1446.51H965.408V1387.2ZM965.408 1453.1H1008.74V1512.41H965.408V1453.1ZM965.408 1518.99H1008.74V1578.31H965.408V1518.99ZM965.408 1584.9H1008.74V1644.21H965.408V1584.9ZM965.408 1650.8H1008.74V1710.1H965.408V1650.8ZM965.408 1716.7H1008.74V1776.01H965.408V1716.7ZM965.408 1782.6H1008.74V1841.91H965.408V1782.6ZM965.408 1848.49H1008.74V1907.81H965.408V1848.49ZM965.408 1914.4H1008.74V1973.71H965.408V1914.4ZM965.408 1980.3H1008.74V2039.61H965.408V1980.3ZM965.408 2046.2H1008.74V2105.51H965.408V2046.2ZM965.408 2112.09H1008.74V2171.41H965.408V2112.09ZM965.408 2178H1008.74V2237.3H965.408V2178ZM965.408 2243.9H1008.74V2303.21H965.408V2243.9ZM965.408 2309.8H1008.74V2369.1H965.408V2309.8ZM965.408 2375.7H1008.74V2435.01H965.408V2375.7ZM965.408 2441.59H1008.74V2500.91H965.408V2441.59ZM965.408 2507.5H1008.74V2566.81H965.408V2507.5ZM965.408 2573.4H1008.74V2632.71H965.408V2573.4ZM917.258 3.295H960.593V62.605H917.258V3.295ZM917.258 69.195H960.593V128.505H917.258V69.195ZM917.258 135.095H960.593V194.405H917.258V135.095ZM917.258 200.995H960.593V260.305H917.258V200.995ZM917.258 266.895H960.593V326.205H917.258V266.895ZM917.258 332.795H960.593V392.105H917.258V332.795ZM917.258 398.695H960.593V458.005H917.258V398.695ZM917.258 464.595H960.593V523.905H917.258V464.595ZM917.258 530.495H960.593V589.805H917.258V530.495ZM917.258 596.395H960.593V655.705H917.258V596.395ZM917.258 662.295H960.593V721.605H917.258V662.295ZM917.258 728.195H960.593V787.505H917.258V728.195ZM917.258 794.095H960.593V853.405H917.258V794.095ZM917.258 859.995H960.593V919.305H917.258V859.995ZM917.258 925.895H960.593V985.205H917.258V925.895ZM917.258 991.795H960.593V1051.1H917.258V991.795ZM917.258 1057.7H960.593V1117.01H917.258V1057.7ZM917.258 1123.59H960.593V1182.91H917.258V1123.59ZM917.258 1189.49H960.593V1248.81H917.258V1189.49ZM917.258 1255.4H960.593V1314.71H917.258V1255.4ZM917.258 1321.3H960.593V1380.6H917.258V1321.3ZM917.258 1387.2H960.593V1446.51H917.258V1387.2ZM917.258 1453.1H960.593V1512.41H917.258V1453.1ZM917.258 1518.99H960.593V1578.31H917.258V1518.99ZM917.258 1584.9H960.593V1644.21H917.258V1584.9ZM917.258 1650.8H960.593V1710.1H917.258V1650.8ZM917.258 1716.7H960.593V1776.01H917.258V1716.7ZM917.258 1782.6H960.593V1841.91H917.258V1782.6ZM917.258 1848.49H960.593V1907.81H917.258V1848.49ZM917.258 1914.4H960.593V1973.71H917.258V1914.4ZM917.258 1980.3H960.593V2039.61H917.258V1980.3ZM917.258 2046.2H960.593V2105.51H917.258V2046.2ZM917.258 2112.09H960.593V2171.41H917.258V2112.09ZM917.258 2178H960.593V2237.3H917.258V2178ZM917.258 2243.9H960.593V2303.21H917.258V2243.9ZM917.258 2309.8H960.593V2369.1H917.258V2309.8ZM917.258 2375.7H960.593V2435.01H917.258V2375.7ZM917.258 2441.59H960.593V2500.91H917.258V2441.59ZM917.258 2507.5H960.593V2566.81H917.258V2507.5ZM917.258 2573.4H960.593V2632.71H917.258V2573.4ZM869.107 3.295H912.443V62.605H869.107V3.295ZM869.107 69.195H912.443V128.505H869.107V69.195ZM869.107 135.095H912.443V194.405H869.107V135.095ZM869.107 200.995H912.443V260.305H869.107V200.995ZM869.107 266.895H912.443V326.205H869.107V266.895ZM869.107 332.795H912.443V392.105H869.107V332.795ZM869.107 398.695H912.443V458.005H869.107V398.695ZM869.107 464.595H912.443V523.905H869.107V464.595ZM869.107 530.495H912.443V589.805H869.107V530.495ZM869.107 596.395H912.443V655.705H869.107V596.395ZM869.107 662.295H912.443V721.605H869.107V662.295ZM869.107 728.195H912.443V787.505H869.107V728.195ZM869.107 794.095H912.443V853.405H869.107V794.095ZM869.107 859.995H912.443V919.305H869.107V859.995ZM869.107 925.895H912.443V985.205H869.107V925.895ZM869.107 991.795H912.443V1051.1H869.107V991.795ZM869.107 1057.7H912.443V1117.01H869.107V1057.7ZM869.107 1123.59H912.443V1182.91H869.107V1123.59ZM869.107 1189.49H912.443V1248.81H869.107V1189.49ZM869.107 1255.4H912.443V1314.71H869.107V1255.4ZM869.107 1321.3H912.443V1380.6H869.107V1321.3ZM869.107 1387.2H912.443V1446.51H869.107V1387.2ZM869.107 1453.1H912.443V1512.41H869.107V1453.1ZM869.107 1518.99H912.443V1578.31H869.107V1518.99ZM869.107 1584.9H912.443V1644.21H869.107V1584.9ZM869.107 1650.8H912.443V1710.1H869.107V1650.8ZM869.107 1716.7H912.443V1776.01H869.107V1716.7ZM869.107 1782.6H912.443V1841.91H869.107V1782.6ZM869.107 1848.49H912.443V1907.81H869.107V1848.49ZM869.107 1914.4H912.443V1973.71H869.107V1914.4ZM869.107 1980.3H912.443V2039.61H869.107V1980.3ZM869.107 2046.2H912.443V2105.51H869.107V2046.2ZM869.107 2112.09H912.443V2171.41H869.107V2112.09ZM869.107 2178H912.443V2237.3H869.107V2178ZM869.107 2243.9H912.443V2303.21H869.107V2243.9ZM869.107 2309.8H912.443V2369.1H869.107V2309.8ZM869.107 2375.7H912.443V2435.01H869.107V2375.7ZM869.107 2441.59H912.443V2500.91H869.107V2441.59ZM869.107 2507.5H912.443V2566.81H869.107V2507.5ZM869.107 2573.4H912.443V2632.71H869.107V2573.4ZM820.958 3.295H864.292V62.605H820.958V3.295ZM820.958 69.195H864.292V128.505H820.958V69.195ZM820.958 135.095H864.292V194.405H820.958V135.095ZM820.958 200.995H864.292V260.305H820.958V200.995ZM820.958 266.895H864.292V326.205H820.958V266.895ZM820.958 332.795H864.292V392.105H820.958V332.795ZM820.958 398.695H864.292V458.005H820.958V398.695ZM820.958 464.595H864.292V523.905H820.958V464.595ZM820.958 530.495H864.292V589.805H820.958V530.495ZM820.958 596.395H864.292V655.705H820.958V596.395ZM820.958 662.295H864.292V721.605H820.958V662.295ZM820.958 728.195H864.292V787.505H820.958V728.195ZM820.958 794.095H864.292V853.405H820.958V794.095ZM820.958 859.995H864.292V919.305H820.958V859.995ZM820.958 925.895H864.292V985.205H820.958V925.895ZM820.958 991.795H864.292V1051.1H820.958V991.795ZM820.958 1057.7H864.292V1117.01H820.958V1057.7ZM820.958 1123.59H864.292V1182.91H820.958V1123.59ZM820.958 1189.49H864.292V1248.81H820.958V1189.49ZM820.958 1255.4H864.292V1314.71H820.958V1255.4ZM820.958 1321.3H864.292V1380.6H820.958V1321.3ZM820.958 1387.2H864.292V1446.51H820.958V1387.2ZM820.958 1453.1H864.292V1512.41H820.958V1453.1ZM820.958 1518.99H864.292V1578.31H820.958V1518.99ZM820.958 1584.9H864.292V1644.21H820.958V1584.9ZM820.958 1650.8H864.292V1710.1H820.958V1650.8ZM820.958 1716.7H864.292V1776.01H820.958V1716.7ZM820.958 1782.6H864.292V1841.91H820.958V1782.6ZM820.958 1848.49H864.292V1907.81H820.958V1848.49ZM820.958 1914.4H864.292V1973.71H820.958V1914.4ZM820.958 1980.3H864.292V2039.61H820.958V1980.3ZM820.958 2046.2H864.292V2105.51H820.958V2046.2ZM820.958 2112.09H864.292V2171.41H820.958V2112.09ZM820.958 2178H864.292V2237.3H820.958V2178ZM820.958 2243.9H864.292V2303.21H820.958V2243.9ZM820.958 2309.8H864.292V2369.1H820.958V2309.8ZM820.958 2375.7H864.292V2435.01H820.958V2375.7ZM820.958 2441.59H864.292V2500.91H820.958V2441.59ZM820.958 2507.5H864.292V2566.81H820.958V2507.5ZM820.958 2573.4H864.292V2632.71H820.958V2573.4ZM772.807 3.295H816.143V62.605H772.807V3.295ZM772.807 69.195H816.143V128.505H772.807V69.195ZM772.807 135.095H816.143V194.405H772.807V135.095ZM772.807 200.995H816.143V260.305H772.807V200.995ZM772.807 266.895H816.143V326.205H772.807V266.895ZM772.807 332.795H816.143V392.105H772.807V332.795ZM772.807 398.695H816.143V458.005H772.807V398.695ZM772.807 464.595H816.143V523.905H772.807V464.595ZM772.807 530.495H816.143V589.805H772.807V530.495ZM772.807 596.395H816.143V655.705H772.807V596.395ZM772.807 662.295H816.143V721.605H772.807V662.295ZM772.807 728.195H816.143V787.505H772.807V728.195ZM772.807 794.095H816.143V853.405H772.807V794.095ZM772.807 859.995H816.143V919.305H772.807V859.995ZM772.807 925.895H816.143V985.205H772.807V925.895ZM772.807 991.795H816.143V1051.1H772.807V991.795ZM772.807 1057.7H816.143V1117.01H772.807V1057.7ZM772.807 1123.59H816.143V1182.91H772.807V1123.59ZM772.807 1189.49H816.143V1248.81H772.807V1189.49ZM772.807 1255.4H816.143V1314.71H772.807V1255.4ZM772.807 1321.3H816.143V1380.6H772.807V1321.3ZM772.807 1387.2H816.143V1446.51H772.807V1387.2ZM772.807 1453.1H816.143V1512.41H772.807V1453.1ZM772.807 1518.99H816.143V1578.31H772.807V1518.99ZM772.807 1584.9H816.143V1644.21H772.807V1584.9ZM772.807 1650.8H816.143V1710.1H772.807V1650.8ZM772.807 1716.7H816.143V1776.01H772.807V1716.7ZM772.807 1782.6H816.143V1841.91H772.807V1782.6ZM772.807 1848.49H816.143V1907.81H772.807V1848.49ZM772.807 1914.4H816.143V1973.71H772.807V1914.4ZM772.807 1980.3H816.143V2039.61H772.807V1980.3ZM772.807 2046.2H816.143V2105.51H772.807V2046.2ZM772.807 2112.09H816.143V2171.41H772.807V2112.09ZM772.807 2178H816.143V2237.3H772.807V2178ZM772.807 2243.9H816.143V2303.21H772.807V2243.9ZM772.807 2309.8H816.143V2369.1H772.807V2309.8ZM772.807 2375.7H816.143V2435.01H772.807V2375.7ZM772.807 2441.59H816.143V2500.91H772.807V2441.59ZM772.807 2507.5H816.143V2566.81H772.807V2507.5ZM772.807 2573.4H816.143V2632.71H772.807V2573.4ZM724.658 3.295H767.992V62.605H724.658V3.295ZM724.658 69.195H767.992V128.505H724.658V69.195ZM724.658 135.095H767.992V194.405H724.658V135.095ZM724.658 200.995H767.992V260.305H724.658V200.995ZM724.658 266.895H767.992V326.205H724.658V266.895ZM724.658 332.795H767.992V392.105H724.658V332.795ZM724.658 398.695H767.992V458.005H724.658V398.695ZM724.658 464.595H767.992V523.905H724.658V464.595ZM724.658 530.495H767.992V589.805H724.658V530.495ZM724.658 596.395H767.992V655.705H724.658V596.395ZM724.658 662.295H767.992V721.605H724.658V662.295ZM724.658 728.195H767.992V787.505H724.658V728.195ZM724.658 794.095H767.992V853.405H724.658V794.095ZM724.658 859.995H767.992V919.305H724.658V859.995ZM724.658 925.895H767.992V985.205H724.658V925.895ZM724.658 991.795H767.992V1051.1H724.658V991.795ZM724.658 1057.7H767.992V1117.01H724.658V1057.7ZM724.658 1123.59H767.992V1182.91H724.658V1123.59ZM724.658 1189.49H767.992V1248.81H724.658V1189.49ZM724.658 1255.4H767.992V1314.71H724.658V1255.4ZM724.658 1321.3H767.992V1380.6H724.658V1321.3ZM724.658 1387.2H767.992V1446.51H724.658V1387.2ZM724.658 1453.1H767.992V1512.41H724.658V1453.1ZM724.658 1518.99H767.992V1578.31H724.658V1518.99ZM724.658 1584.9H767.992V1644.21H724.658V1584.9ZM724.658 1650.8H767.992V1710.1H724.658V1650.8ZM724.658 1716.7H767.992V1776.01H724.658V1716.7ZM724.658 1782.6H767.992V1841.91H724.658V1782.6ZM724.658 1848.49H767.992V1907.81H724.658V1848.49ZM724.658 1914.4H767.992V1973.71H724.658V1914.4ZM724.658 1980.3H767.992V2039.61H724.658V1980.3ZM724.658 2046.2H767.992V2105.51H724.658V2046.2ZM724.658 2112.09H767.992V2171.41H724.658V2112.09ZM724.658 2178H767.992V2237.3H724.658V2178ZM724.658 2243.9H767.992V2303.21H724.658V2243.9ZM724.658 2309.8H767.992V2369.1H724.658V2309.8ZM724.658 2375.7H767.992V2435.01H724.658V2375.7ZM724.658 2441.59H767.992V2500.91H724.658V2441.59ZM724.658 2507.5H767.992V2566.81H724.658V2507.5ZM724.658 2573.4H767.992V2632.71H724.658V2573.4ZM676.508 3.295H719.843V62.605H676.508V3.295ZM676.508 69.195H719.843V128.505H676.508V69.195ZM676.508 135.095H719.843V194.405H676.508V135.095ZM676.508 200.995H719.843V260.305H676.508V200.995ZM676.508 266.895H719.843V326.205H676.508V266.895ZM676.508 332.795H719.843V392.105H676.508V332.795ZM676.508 398.695H719.843V458.005H676.508V398.695ZM676.508 464.595H719.843V523.905H676.508V464.595ZM676.508 530.495H719.843V589.805H676.508V530.495ZM676.508 596.395H719.843V655.705H676.508V596.395ZM676.508 662.295H719.843V721.605H676.508V662.295ZM676.508 728.195H719.843V787.505H676.508V728.195ZM676.508 794.095H719.843V853.405H676.508V794.095ZM676.508 859.995H719.843V919.305H676.508V859.995ZM676.508 925.895H719.843V985.205H676.508V925.895ZM676.508 991.795H719.843V1051.1H676.508V991.795ZM676.508 1057.7H719.843V1117.01H676.508V1057.7ZM676.508 1123.59H719.843V1182.91H676.508V1123.59ZM676.508 1189.49H719.843V1248.81H676.508V1189.49ZM676.508 1255.4H719.843V1314.71H676.508V1255.4ZM676.508 1321.3H719.843V1380.6H676.508V1321.3ZM676.508 1387.2H719.843V1446.51H676.508V1387.2ZM676.508 1453.1H719.843V1512.41H676.508V1453.1ZM676.508 1518.99H719.843V1578.31H676.508V1518.99ZM676.508 1584.9H719.843V1644.21H676.508V1584.9ZM676.508 1650.8H719.843V1710.1H676.508V1650.8ZM676.508 1716.7H719.843V1776.01H676.508V1716.7ZM676.508 1782.6H719.843V1841.91H676.508V1782.6ZM676.508 1848.49H719.843V1907.81H676.508V1848.49ZM676.508 1914.4H719.843V1973.71H676.508V1914.4ZM676.508 1980.3H719.843V2039.61H676.508V1980.3ZM676.508 2046.2H719.843V2105.51H676.508V2046.2ZM676.508 2112.09H719.843V2171.41H676.508V2112.09ZM676.508 2178H719.843V2237.3H676.508V2178ZM676.508 2243.9H719.843V2303.21H676.508V2243.9ZM676.508 2309.8H719.843V2369.1H676.508V2309.8ZM676.508 2375.7H719.843V2435.01H676.508V2375.7ZM676.508 2441.59H719.843V2500.91H676.508V2441.59ZM676.508 2507.5H719.843V2566.81H676.508V2507.5ZM676.508 2573.4H719.843V2632.71H676.508V2573.4ZM628.357 3.295H671.693V62.605H628.357V3.295ZM628.357 69.195H671.693V128.505H628.357V69.195ZM628.357 135.095H671.693V194.405H628.357V135.095ZM628.357 200.995H671.693V260.305H628.357V200.995ZM628.357 266.895H671.693V326.205H628.357V266.895ZM628.357 332.795H671.693V392.105H628.357V332.795ZM628.357 398.695H671.693V458.005H628.357V398.695ZM628.357 464.595H671.693V523.905H628.357V464.595ZM628.357 530.495H671.693V589.805H628.357V530.495ZM628.357 596.395H671.693V655.705H628.357V596.395ZM628.357 662.295H671.693V721.605H628.357V662.295ZM628.357 728.195H671.693V787.505H628.357V728.195ZM628.357 794.095H671.693V853.405H628.357V794.095ZM628.357 859.995H671.693V919.305H628.357V859.995ZM628.357 925.895H671.693V985.205H628.357V925.895ZM628.357 991.795H671.693V1051.1H628.357V991.795ZM628.357 1057.7H671.693V1117.01H628.357V1057.7ZM628.357 1123.59H671.693V1182.91H628.357V1123.59ZM628.357 1189.49H671.693V1248.81H628.357V1189.49ZM628.357 1255.4H671.693V1314.71H628.357V1255.4ZM628.357 1321.3H671.693V1380.6H628.357V1321.3ZM628.357 1387.2H671.693V1446.51H628.357V1387.2ZM628.357 1453.1H671.693V1512.41H628.357V1453.1ZM628.357 1518.99H671.693V1578.31H628.357V1518.99ZM628.357 1584.9H671.693V1644.21H628.357V1584.9ZM628.357 1650.8H671.693V1710.1H628.357V1650.8ZM628.357 1716.7H671.693V1776.01H628.357V1716.7ZM628.357 1782.6H671.693V1841.91H628.357V1782.6ZM628.357 1848.49H671.693V1907.81H628.357V1848.49ZM628.357 1914.4H671.693V1973.71H628.357V1914.4ZM628.357 1980.3H671.693V2039.61H628.357V1980.3ZM628.357 2046.2H671.693V2105.51H628.357V2046.2ZM628.357 2112.09H671.693V2171.41H628.357V2112.09ZM628.357 2178H671.693V2237.3H628.357V2178ZM628.357 2243.9H671.693V2303.21H628.357V2243.9ZM628.357 2309.8H671.693V2369.1H628.357V2309.8ZM628.357 2375.7H671.693V2435.01H628.357V2375.7ZM628.357 2441.59H671.693V2500.91H628.357V2441.59ZM628.357 2507.5H671.693V2566.81H628.357V2507.5ZM628.357 2573.4H671.693V2632.71H628.357V2573.4ZM580.208 3.295H623.542V62.605H580.208V3.295ZM580.208 69.195H623.542V128.505H580.208V69.195ZM580.208 135.095H623.542V194.405H580.208V135.095ZM580.208 200.995H623.542V260.305H580.208V200.995ZM580.208 266.895H623.542V326.205H580.208V266.895ZM580.208 332.795H623.542V392.105H580.208V332.795ZM580.208 398.695H623.542V458.005H580.208V398.695ZM580.208 464.595H623.542V523.905H580.208V464.595ZM580.208 530.495H623.542V589.805H580.208V530.495ZM580.208 596.395H623.542V655.705H580.208V596.395ZM580.208 662.295H623.542V721.605H580.208V662.295ZM580.208 728.195H623.542V787.505H580.208V728.195ZM580.208 794.095H623.542V853.405H580.208V794.095ZM580.208 859.995H623.542V919.305H580.208V859.995ZM580.208 925.895H623.542V985.205H580.208V925.895ZM580.208 991.795H623.542V1051.1H580.208V991.795ZM580.208 1057.7H623.542V1117.01H580.208V1057.7ZM580.208 1123.59H623.542V1182.91H580.208V1123.59ZM580.208 1189.49H623.542V1248.81H580.208V1189.49ZM580.208 1255.4H623.542V1314.71H580.208V1255.4ZM580.208 1321.3H623.542V1380.6H580.208V1321.3ZM580.208 1387.2H623.542V1446.51H580.208V1387.2ZM580.208 1453.1H623.542V1512.41H580.208V1453.1ZM580.208 1518.99H623.542V1578.31H580.208V1518.99ZM580.208 1584.9H623.542V1644.21H580.208V1584.9ZM580.208 1650.8H623.542V1710.1H580.208V1650.8ZM580.208 1716.7H623.542V1776.01H580.208V1716.7ZM580.208 1782.6H623.542V1841.91H580.208V1782.6ZM580.208 1848.49H623.542V1907.81H580.208V1848.49ZM580.208 1914.4H623.542V1973.71H580.208V1914.4ZM580.208 1980.3H623.542V2039.61H580.208V1980.3ZM580.208 2046.2H623.542V2105.51H580.208V2046.2ZM580.208 2112.09H623.542V2171.41H580.208V2112.09ZM580.208 2178H623.542V2237.3H580.208V2178ZM580.208 2243.9H623.542V2303.21H580.208V2243.9ZM580.208 2309.8H623.542V2369.1H580.208V2309.8ZM580.208 2375.7H623.542V2435.01H580.208V2375.7ZM580.208 2441.59H623.542V2500.91H580.208V2441.59ZM580.208 2507.5H623.542V2566.81H580.208V2507.5ZM580.208 2573.4H623.542V2632.71H580.208V2573.4ZM532.057 3.295H575.393V62.605H532.057V3.295ZM532.057 69.195H575.393V128.505H532.057V69.195ZM532.057 135.095H575.393V194.405H532.057V135.095ZM532.057 200.995H575.393V260.305H532.057V200.995ZM532.057 266.895H575.393V326.205H532.057V266.895ZM532.057 332.795H575.393V392.105H532.057V332.795ZM532.057 398.695H575.393V458.005H532.057V398.695ZM532.057 464.595H575.393V523.905H532.057V464.595ZM532.057 530.495H575.393V589.805H532.057V530.495ZM532.057 596.395H575.393V655.705H532.057V596.395ZM532.057 662.295H575.393V721.605H532.057V662.295ZM532.057 728.195H575.393V787.505H532.057V728.195ZM532.057 794.095H575.393V853.405H532.057V794.095ZM532.057 859.995H575.393V919.305H532.057V859.995ZM532.057 925.895H575.393V985.205H532.057V925.895ZM532.057 991.795H575.393V1051.1H532.057V991.795ZM532.057 1057.7H575.393V1117.01H532.057V1057.7ZM532.057 1123.59H575.393V1182.91H532.057V1123.59ZM532.057 1189.49H575.393V1248.81H532.057V1189.49ZM532.057 1255.4H575.393V1314.71H532.057V1255.4ZM532.057 1321.3H575.393V1380.6H532.057V1321.3ZM532.057 1387.2H575.393V1446.51H532.057V1387.2ZM532.057 1453.1H575.393V1512.41H532.057V1453.1ZM532.057 1518.99H575.393V1578.31H532.057V1518.99ZM532.057 1584.9H575.393V1644.21H532.057V1584.9ZM532.057 1650.8H575.393V1710.1H532.057V1650.8ZM532.057 1716.7H575.393V1776.01H532.057V1716.7ZM532.057 1782.6H575.393V1841.91H532.057V1782.6ZM532.057 1848.49H575.393V1907.81H532.057V1848.49ZM532.057 1914.4H575.393V1973.71H532.057V1914.4ZM532.057 1980.3H575.393V2039.61H532.057V1980.3ZM532.057 2046.2H575.393V2105.51H532.057V2046.2ZM532.057 2112.09H575.393V2171.41H532.057V2112.09ZM532.057 2178H575.393V2237.3H532.057V2178ZM532.057 2243.9H575.393V2303.21H532.057V2243.9ZM532.057 2309.8H575.393V2369.1H532.057V2309.8ZM532.057 2375.7H575.393V2435.01H532.057V2375.7ZM532.057 2441.59H575.393V2500.91H532.057V2441.59ZM532.057 2507.5H575.393V2566.81H532.057V2507.5ZM532.057 2573.4H575.393V2632.71H532.057V2573.4ZM483.908 3.295H527.242V62.605H483.908V3.295ZM483.908 69.195H527.242V128.505H483.908V69.195ZM483.908 135.095H527.242V194.405H483.908V135.095ZM483.908 200.995H527.242V260.305H483.908V200.995ZM483.908 266.895H527.242V326.205H483.908V266.895ZM483.908 332.795H527.242V392.105H483.908V332.795ZM483.908 398.695H527.242V458.005H483.908V398.695ZM483.908 464.595H527.242V523.905H483.908V464.595ZM483.908 530.495H527.242V589.805H483.908V530.495ZM483.908 596.395H527.242V655.705H483.908V596.395ZM483.908 662.295H527.242V721.605H483.908V662.295ZM483.908 728.195H527.242V787.505H483.908V728.195ZM483.908 794.095H527.242V853.405H483.908V794.095ZM483.908 859.995H527.242V919.305H483.908V859.995ZM483.908 925.895H527.242V985.205H483.908V925.895ZM483.908 991.795H527.242V1051.1H483.908V991.795ZM483.908 1057.7H527.242V1117.01H483.908V1057.7ZM483.908 1123.59H527.242V1182.91H483.908V1123.59ZM483.908 1189.49H527.242V1248.81H483.908V1189.49ZM483.908 1255.4H527.242V1314.71H483.908V1255.4ZM483.908 1321.3H527.242V1380.6H483.908V1321.3ZM483.908 1387.2H527.242V1446.51H483.908V1387.2ZM483.908 1453.1H527.242V1512.41H483.908V1453.1ZM483.908 1518.99H527.242V1578.31H483.908V1518.99ZM483.908 1584.9H527.242V1644.21H483.908V1584.9ZM483.908 1650.8H527.242V1710.1H483.908V1650.8ZM483.908 1716.7H527.242V1776.01H483.908V1716.7ZM483.908 1782.6H527.242V1841.91H483.908V1782.6ZM483.908 1848.49H527.242V1907.81H483.908V1848.49ZM483.908 1914.4H527.242V1973.71H483.908V1914.4ZM483.908 1980.3H527.242V2039.61H483.908V1980.3ZM483.908 2046.2H527.242V2105.51H483.908V2046.2ZM483.908 2112.09H527.242V2171.41H483.908V2112.09ZM483.908 2178H527.242V2237.3H483.908V2178ZM483.908 2243.9H527.242V2303.21H483.908V2243.9ZM483.908 2309.8H527.242V2369.1H483.908V2309.8ZM483.908 2375.7H527.242V2435.01H483.908V2375.7ZM483.908 2441.59H527.242V2500.91H483.908V2441.59ZM483.908 2507.5H527.242V2566.81H483.908V2507.5ZM483.908 2573.4H527.242V2632.71H483.908V2573.4ZM435.758 3.295H479.092V62.605H435.758V3.295ZM435.758 69.195H479.092V128.505H435.758V69.195ZM435.758 135.095H479.092V194.405H435.758V135.095ZM435.758 200.995H479.092V260.305H435.758V200.995ZM435.758 266.895H479.092V326.205H435.758V266.895ZM435.758 332.795H479.092V392.105H435.758V332.795ZM435.758 398.695H479.092V458.005H435.758V398.695ZM435.758 464.595H479.092V523.905H435.758V464.595ZM435.758 530.495H479.092V589.805H435.758V530.495ZM435.758 596.395H479.092V655.705H435.758V596.395ZM435.758 662.295H479.092V721.605H435.758V662.295ZM435.758 728.195H479.092V787.505H435.758V728.195ZM435.758 794.095H479.092V853.405H435.758V794.095ZM435.758 859.995H479.092V919.305H435.758V859.995ZM435.758 925.895H479.092V985.205H435.758V925.895ZM435.758 991.795H479.092V1051.1H435.758V991.795ZM435.758 1057.7H479.092V1117.01H435.758V1057.7ZM435.758 1123.59H479.092V1182.91H435.758V1123.59ZM435.758 1189.49H479.092V1248.81H435.758V1189.49ZM435.758 1255.4H479.092V1314.71H435.758V1255.4ZM435.758 1321.3H479.092V1380.6H435.758V1321.3ZM435.758 1387.2H479.092V1446.51H435.758V1387.2ZM435.758 1453.1H479.092V1512.41H435.758V1453.1ZM435.758 1518.99H479.092V1578.31H435.758V1518.99ZM435.758 1584.9H479.092V1644.21H435.758V1584.9ZM435.758 1650.8H479.092V1710.1H435.758V1650.8ZM435.758 1716.7H479.092V1776.01H435.758V1716.7ZM435.758 1782.6H479.092V1841.91H435.758V1782.6ZM435.758 1848.49H479.092V1907.81H435.758V1848.49ZM435.758 1914.4H479.092V1973.71H435.758V1914.4ZM435.758 1980.3H479.092V2039.61H435.758V1980.3ZM435.758 2046.2H479.092V2105.51H435.758V2046.2ZM435.758 2112.09H479.092V2171.41H435.758V2112.09ZM435.758 2178H479.092V2237.3H435.758V2178ZM435.758 2243.9H479.092V2303.21H435.758V2243.9ZM435.758 2309.8H479.092V2369.1H435.758V2309.8ZM435.758 2375.7H479.092V2435.01H435.758V2375.7ZM435.758 2441.59H479.092V2500.91H435.758V2441.59ZM435.758 2507.5H479.092V2566.81H435.758V2507.5ZM435.758 2573.4H479.092V2632.71H435.758V2573.4ZM387.608 3.295H430.943V62.605H387.608V3.295ZM387.608 69.195H430.943V128.505H387.608V69.195ZM387.608 135.095H430.943V194.405H387.608V135.095ZM387.608 200.995H430.943V260.305H387.608V200.995ZM387.608 266.895H430.943V326.205H387.608V266.895ZM387.608 332.795H430.943V392.105H387.608V332.795ZM387.608 398.695H430.943V458.005H387.608V398.695ZM387.608 464.595H430.943V523.905H387.608V464.595ZM387.608 530.495H430.943V589.805H387.608V530.495ZM387.608 596.395H430.943V655.705H387.608V596.395ZM387.608 662.295H430.943V721.605H387.608V662.295ZM387.608 728.195H430.943V787.505H387.608V728.195ZM387.608 794.095H430.943V853.405H387.608V794.095ZM387.608 859.995H430.943V919.305H387.608V859.995ZM387.608 925.895H430.943V985.205H387.608V925.895ZM387.608 991.795H430.943V1051.1H387.608V991.795ZM387.608 1057.7H430.943V1117.01H387.608V1057.7ZM387.608 1123.59H430.943V1182.91H387.608V1123.59ZM387.608 1189.49H430.943V1248.81H387.608V1189.49ZM387.608 1255.4H430.943V1314.71H387.608V1255.4ZM387.608 1321.3H430.943V1380.6H387.608V1321.3ZM387.608 1387.2H430.943V1446.51H387.608V1387.2ZM387.608 1453.1H430.943V1512.41H387.608V1453.1ZM387.608 1518.99H430.943V1578.31H387.608V1518.99ZM387.608 1584.9H430.943V1644.21H387.608V1584.9ZM387.608 1650.8H430.943V1710.1H387.608V1650.8ZM387.608 1716.7H430.943V1776.01H387.608V1716.7ZM387.608 1782.6H430.943V1841.91H387.608V1782.6ZM387.608 1848.49H430.943V1907.81H387.608V1848.49ZM387.608 1914.4H430.943V1973.71H387.608V1914.4ZM387.608 1980.3H430.943V2039.61H387.608V1980.3ZM387.608 2046.2H430.943V2105.51H387.608V2046.2ZM387.608 2112.09H430.943V2171.41H387.608V2112.09ZM387.608 2178H430.943V2237.3H387.608V2178ZM387.608 2243.9H430.943V2303.21H387.608V2243.9ZM387.608 2309.8H430.943V2369.1H387.608V2309.8ZM387.608 2375.7H430.943V2435.01H387.608V2375.7ZM387.608 2441.59H430.943V2500.91H387.608V2441.59ZM387.608 2507.5H430.943V2566.81H387.608V2507.5ZM387.608 2573.4H430.943V2632.71H387.608V2573.4ZM339.457 3.295H382.793V62.605H339.457V3.295ZM339.457 69.195H382.793V128.505H339.457V69.195ZM339.457 135.095H382.793V194.405H339.457V135.095ZM339.457 200.995H382.793V260.305H339.457V200.995ZM339.457 266.895H382.793V326.205H339.457V266.895ZM339.457 332.795H382.793V392.105H339.457V332.795ZM339.457 398.695H382.793V458.005H339.457V398.695ZM339.457 464.595H382.793V523.905H339.457V464.595ZM339.457 530.495H382.793V589.805H339.457V530.495ZM339.457 596.395H382.793V655.705H339.457V596.395ZM339.457 662.295H382.793V721.605H339.457V662.295ZM339.457 728.195H382.793V787.505H339.457V728.195ZM339.457 794.095H382.793V853.405H339.457V794.095ZM339.457 859.995H382.793V919.305H339.457V859.995ZM339.457 925.895H382.793V985.205H339.457V925.895ZM339.457 991.795H382.793V1051.1H339.457V991.795ZM339.457 1057.7H382.793V1117.01H339.457V1057.7ZM339.457 1123.59H382.793V1182.91H339.457V1123.59ZM339.457 1189.49H382.793V1248.81H339.457V1189.49ZM339.457 1255.4H382.793V1314.71H339.457V1255.4ZM339.457 1321.3H382.793V1380.6H339.457V1321.3ZM339.457 1387.2H382.793V1446.51H339.457V1387.2ZM339.457 1453.1H382.793V1512.41H339.457V1453.1ZM339.457 1518.99H382.793V1578.31H339.457V1518.99ZM339.457 1584.9H382.793V1644.21H339.457V1584.9ZM339.457 1650.8H382.793V1710.1H339.457V1650.8ZM339.457 1716.7H382.793V1776.01H339.457V1716.7ZM339.457 1782.6H382.793V1841.91H339.457V1782.6ZM339.457 1848.49H382.793V1907.81H339.457V1848.49ZM339.457 1914.4H382.793V1973.71H339.457V1914.4ZM339.457 1980.3H382.793V2039.61H339.457V1980.3ZM339.457 2046.2H382.793V2105.51H339.457V2046.2ZM339.457 2112.09H382.793V2171.41H339.457V2112.09ZM339.457 2178H382.793V2237.3H339.457V2178ZM339.457 2243.9H382.793V2303.21H339.457V2243.9ZM339.457 2309.8H382.793V2369.1H339.457V2309.8ZM339.457 2375.7H382.793V2435.01H339.457V2375.7ZM339.457 2441.59H382.793V2500.91H339.457V2441.59ZM339.457 2507.5H382.793V2566.81H339.457V2507.5ZM339.457 2573.4H382.793V2632.71H339.457V2573.4ZM291.307 3.295H334.643V62.605H291.307V3.295ZM291.307 69.195H334.643V128.505H291.307V69.195ZM291.307 135.095H334.643V194.405H291.307V135.095ZM291.307 200.995H334.643V260.305H291.307V200.995ZM291.307 266.895H334.643V326.205H291.307V266.895ZM291.307 332.795H334.643V392.105H291.307V332.795ZM291.307 398.695H334.643V458.005H291.307V398.695ZM291.307 464.595H334.643V523.905H291.307V464.595ZM291.307 530.495H334.643V589.805H291.307V530.495ZM291.307 596.395H334.643V655.705H291.307V596.395ZM291.307 662.295H334.643V721.605H291.307V662.295ZM291.307 728.195H334.643V787.505H291.307V728.195ZM291.307 794.095H334.643V853.405H291.307V794.095ZM291.307 859.995H334.643V919.305H291.307V859.995ZM291.307 925.895H334.643V985.205H291.307V925.895ZM291.307 991.795H334.643V1051.1H291.307V991.795ZM291.307 1057.7H334.643V1117.01H291.307V1057.7ZM291.307 1123.59H334.643V1182.91H291.307V1123.59ZM291.307 1189.49H334.643V1248.81H291.307V1189.49ZM291.307 1255.4H334.643V1314.71H291.307V1255.4ZM291.307 1321.3H334.643V1380.6H291.307V1321.3ZM291.307 1387.2H334.643V1446.51H291.307V1387.2ZM291.307 1453.1H334.643V1512.41H291.307V1453.1ZM291.307 1518.99H334.643V1578.31H291.307V1518.99ZM291.307 1584.9H334.643V1644.21H291.307V1584.9ZM291.307 1650.8H334.643V1710.1H291.307V1650.8ZM291.307 1716.7H334.643V1776.01H291.307V1716.7ZM291.307 1782.6H334.643V1841.91H291.307V1782.6ZM291.307 1848.49H334.643V1907.81H291.307V1848.49ZM291.307 1914.4H334.643V1973.71H291.307V1914.4ZM291.307 1980.3H334.643V2039.61H291.307V1980.3ZM291.307 2046.2H334.643V2105.51H291.307V2046.2ZM291.307 2112.09H334.643V2171.41H291.307V2112.09ZM291.307 2178H334.643V2237.3H291.307V2178ZM291.307 2243.9H334.643V2303.21H291.307V2243.9ZM291.307 2309.8H334.643V2369.1H291.307V2309.8ZM291.307 2375.7H334.643V2435.01H291.307V2375.7ZM291.307 2441.59H334.643V2500.91H291.307V2441.59ZM291.307 2507.5H334.643V2566.81H291.307V2507.5ZM291.307 2573.4H334.643V2632.71H291.307V2573.4ZM243.158 3.295H286.492V62.605H243.158V3.295ZM243.158 69.195H286.492V128.505H243.158V69.195ZM243.158 135.095H286.492V194.405H243.158V135.095ZM243.158 200.995H286.492V260.305H243.158V200.995ZM243.158 266.895H286.492V326.205H243.158V266.895ZM243.158 332.795H286.492V392.105H243.158V332.795ZM243.158 398.695H286.492V458.005H243.158V398.695ZM243.158 464.595H286.492V523.905H243.158V464.595ZM243.158 530.495H286.492V589.805H243.158V530.495ZM243.158 596.395H286.492V655.705H243.158V596.395ZM243.158 662.295H286.492V721.605H243.158V662.295ZM243.158 728.195H286.492V787.505H243.158V728.195ZM243.158 794.095H286.492V853.405H243.158V794.095ZM243.158 859.995H286.492V919.305H243.158V859.995ZM243.158 925.895H286.492V985.205H243.158V925.895ZM243.158 991.795H286.492V1051.1H243.158V991.795ZM243.158 1057.7H286.492V1117.01H243.158V1057.7ZM243.158 1123.59H286.492V1182.91H243.158V1123.59ZM243.158 1189.49H286.492V1248.81H243.158V1189.49ZM243.158 1255.4H286.492V1314.71H243.158V1255.4ZM243.158 1321.3H286.492V1380.6H243.158V1321.3ZM243.158 1387.2H286.492V1446.51H243.158V1387.2ZM243.158 1453.1H286.492V1512.41H243.158V1453.1ZM243.158 1518.99H286.492V1578.31H243.158V1518.99ZM243.158 1584.9H286.492V1644.21H243.158V1584.9ZM243.158 1650.8H286.492V1710.1H243.158V1650.8ZM243.158 1716.7H286.492V1776.01H243.158V1716.7ZM243.158 1782.6H286.492V1841.91H243.158V1782.6ZM243.158 1848.49H286.492V1907.81H243.158V1848.49ZM243.158 1914.4H286.492V1973.71H243.158V1914.4ZM243.158 1980.3H286.492V2039.61H243.158V1980.3ZM243.158 2046.2H286.492V2105.51H243.158V2046.2ZM243.158 2112.09H286.492V2171.41H243.158V2112.09ZM243.158 2178H286.492V2237.3H243.158V2178ZM243.158 2243.9H286.492V2303.21H243.158V2243.9ZM243.158 2309.8H286.492V2369.1H243.158V2309.8ZM243.158 2375.7H286.492V2435.01H243.158V2375.7ZM243.158 2441.59H286.492V2500.91H243.158V2441.59ZM243.158 2507.5H286.492V2566.81H243.158V2507.5ZM243.158 2573.4H286.492V2632.71H243.158V2573.4ZM195.008 3.295H238.342V62.605H195.008V3.295ZM195.008 69.195H238.342V128.505H195.008V69.195ZM195.008 135.095H238.342V194.405H195.008V135.095ZM195.008 200.995H238.342V260.305H195.008V200.995ZM195.008 266.895H238.342V326.205H195.008V266.895ZM195.008 332.795H238.342V392.105H195.008V332.795ZM195.008 398.695H238.342V458.005H195.008V398.695ZM195.008 464.595H238.342V523.905H195.008V464.595ZM195.008 530.495H238.342V589.805H195.008V530.495ZM195.008 596.395H238.342V655.705H195.008V596.395ZM195.008 662.295H238.342V721.605H195.008V662.295ZM195.008 728.195H238.342V787.505H195.008V728.195ZM195.008 794.095H238.342V853.405H195.008V794.095ZM195.008 859.995H238.342V919.305H195.008V859.995ZM195.008 925.895H238.342V985.205H195.008V925.895ZM195.008 991.795H238.342V1051.1H195.008V991.795ZM195.008 1057.7H238.342V1117.01H195.008V1057.7ZM195.008 1123.59H238.342V1182.91H195.008V1123.59ZM195.008 1189.49H238.342V1248.81H195.008V1189.49ZM195.008 1255.4H238.342V1314.71H195.008V1255.4ZM195.008 1321.3H238.342V1380.6H195.008V1321.3ZM195.008 1387.2H238.342V1446.51H195.008V1387.2ZM195.008 1453.1H238.342V1512.41H195.008V1453.1ZM195.008 1518.99H238.342V1578.31H195.008V1518.99ZM195.008 1584.9H238.342V1644.21H195.008V1584.9ZM195.008 1650.8H238.342V1710.1H195.008V1650.8ZM195.008 1716.7H238.342V1776.01H195.008V1716.7ZM195.008 1782.6H238.342V1841.91H195.008V1782.6ZM195.008 1848.49H238.342V1907.81H195.008V1848.49ZM195.008 1914.4H238.342V1973.71H195.008V1914.4ZM195.008 1980.3H238.342V2039.61H195.008V1980.3ZM195.008 2046.2H238.342V2105.51H195.008V2046.2ZM195.008 2112.09H238.342V2171.41H195.008V2112.09ZM195.008 2178H238.342V2237.3H195.008V2178ZM195.008 2243.9H238.342V2303.21H195.008V2243.9ZM195.008 2309.8H238.342V2369.1H195.008V2309.8ZM195.008 2375.7H238.342V2435.01H195.008V2375.7ZM195.008 2441.59H238.342V2500.91H195.008V2441.59ZM195.008 2507.5H238.342V2566.81H195.008V2507.5ZM195.008 2573.4H238.342V2632.71H195.008V2573.4ZM146.857 3.295H190.193V62.605H146.857V3.295ZM146.857 69.195H190.193V128.505H146.857V69.195ZM146.857 135.095H190.193V194.405H146.857V135.095ZM146.857 200.995H190.193V260.305H146.857V200.995ZM146.857 266.895H190.193V326.205H146.857V266.895ZM146.857 332.795H190.193V392.105H146.857V332.795ZM146.857 398.695H190.193V458.005H146.857V398.695ZM146.857 464.595H190.193V523.905H146.857V464.595ZM146.857 530.495H190.193V589.805H146.857V530.495ZM146.857 596.395H190.193V655.705H146.857V596.395ZM146.857 662.295H190.193V721.605H146.857V662.295ZM146.857 728.195H190.193V787.505H146.857V728.195ZM146.857 794.095H190.193V853.405H146.857V794.095ZM146.857 859.995H190.193V919.305H146.857V859.995ZM146.857 925.895H190.193V985.205H146.857V925.895ZM146.857 991.795H190.193V1051.1H146.857V991.795ZM146.857 1057.7H190.193V1117.01H146.857V1057.7ZM146.857 1123.59H190.193V1182.91H146.857V1123.59ZM146.857 1189.49H190.193V1248.81H146.857V1189.49ZM146.857 1255.4H190.193V1314.71H146.857V1255.4ZM146.857 1321.3H190.193V1380.6H146.857V1321.3ZM146.857 1387.2H190.193V1446.51H146.857V1387.2ZM146.857 1453.1H190.193V1512.41H146.857V1453.1ZM146.857 1518.99H190.193V1578.31H146.857V1518.99ZM146.857 1584.9H190.193V1644.21H146.857V1584.9ZM146.857 1650.8H190.193V1710.1H146.857V1650.8ZM146.857 1716.7H190.193V1776.01H146.857V1716.7ZM146.857 1782.6H190.193V1841.91H146.857V1782.6ZM146.857 1848.49H190.193V1907.81H146.857V1848.49ZM146.857 1914.4H190.193V1973.71H146.857V1914.4ZM146.857 1980.3H190.193V2039.61H146.857V1980.3ZM146.857 2046.2H190.193V2105.51H146.857V2046.2ZM146.857 2112.09H190.193V2171.41H146.857V2112.09ZM146.857 2178H190.193V2237.3H146.857V2178ZM146.857 2243.9H190.193V2303.21H146.857V2243.9ZM146.857 2309.8H190.193V2369.1H146.857V2309.8ZM146.857 2375.7H190.193V2435.01H146.857V2375.7ZM146.857 2441.59H190.193V2500.91H146.857V2441.59ZM146.857 2507.5H190.193V2566.81H146.857V2507.5ZM146.857 2573.4H190.193V2632.71H146.857V2573.4ZM98.7075 3.295H142.042V62.605H98.7075V3.295ZM98.7075 69.195H142.042V128.505H98.7075V69.195ZM98.7075 135.095H142.042V194.405H98.7075V135.095ZM98.7075 200.995H142.042V260.305H98.7075V200.995ZM98.7075 266.895H142.042V326.205H98.7075V266.895ZM98.7075 332.795H142.042V392.105H98.7075V332.795ZM98.7075 398.695H142.042V458.005H98.7075V398.695ZM98.7075 464.595H142.042V523.905H98.7075V464.595ZM98.7075 530.495H142.042V589.805H98.7075V530.495ZM98.7075 596.395H142.042V655.705H98.7075V596.395ZM98.7075 662.295H142.042V721.605H98.7075V662.295ZM98.7075 728.195H142.042V787.505H98.7075V728.195ZM98.7075 794.095H142.042V853.405H98.7075V794.095ZM98.7075 859.995H142.042V919.305H98.7075V859.995ZM98.7075 925.895H142.042V985.205H98.7075V925.895ZM98.7075 991.795H142.042V1051.1H98.7075V991.795ZM98.7075 1057.7H142.042V1117.01H98.7075V1057.7ZM98.7075 1123.59H142.042V1182.91H98.7075V1123.59ZM98.7075 1189.49H142.042V1248.81H98.7075V1189.49ZM98.7075 1255.4H142.042V1314.71H98.7075V1255.4ZM98.7075 1321.3H142.042V1380.6H98.7075V1321.3ZM98.7075 1387.2H142.042V1446.51H98.7075V1387.2ZM98.7075 1453.1H142.042V1512.41H98.7075V1453.1ZM98.7075 1518.99H142.042V1578.31H98.7075V1518.99ZM98.7075 1584.9H142.042V1644.21H98.7075V1584.9ZM98.7075 1650.8H142.042V1710.1H98.7075V1650.8ZM98.7075 1716.7H142.042V1776.01H98.7075V1716.7ZM98.7075 1782.6H142.042V1841.91H98.7075V1782.6ZM98.7075 1848.49H142.042V1907.81H98.7075V1848.49ZM98.7075 1914.4H142.042V1973.71H98.7075V1914.4ZM98.7075 1980.3H142.042V2039.61H98.7075V1980.3ZM98.7075 2046.2H142.042V2105.51H98.7075V2046.2ZM98.7075 2112.09H142.042V2171.41H98.7075V2112.09ZM98.7075 2178H142.042V2237.3H98.7075V2178ZM98.7075 2243.9H142.042V2303.21H98.7075V2243.9ZM98.7075 2309.8H142.042V2369.1H98.7075V2309.8ZM98.7075 2375.7H142.042V2435.01H98.7075V2375.7ZM98.7075 2441.59H142.042V2500.91H98.7075V2441.59ZM98.7075 2507.5H142.042V2566.81H98.7075V2507.5ZM98.7075 2573.4H142.042V2632.71H98.7075V2573.4ZM50.5575 3.295H93.8925V62.605H50.5575V3.295ZM50.5575 69.195H93.8925V128.505H50.5575V69.195ZM50.5575 135.095H93.8925V194.405H50.5575V135.095ZM50.5575 200.995H93.8925V260.305H50.5575V200.995ZM50.5575 266.895H93.8925V326.205H50.5575V266.895ZM50.5575 332.795H93.8925V392.105H50.5575V332.795ZM50.5575 398.695H93.8925V458.005H50.5575V398.695ZM50.5575 464.595H93.8925V523.905H50.5575V464.595ZM50.5575 530.495H93.8925V589.805H50.5575V530.495ZM50.5575 596.395H93.8925V655.705H50.5575V596.395ZM50.5575 662.295H93.8925V721.605H50.5575V662.295ZM50.5575 728.195H93.8925V787.505H50.5575V728.195ZM50.5575 794.095H93.8925V853.405H50.5575V794.095ZM50.5575 859.995H93.8925V919.305H50.5575V859.995ZM50.5575 925.895H93.8925V985.205H50.5575V925.895ZM50.5575 991.795H93.8925V1051.1H50.5575V991.795ZM50.5575 1057.7H93.8925V1117.01H50.5575V1057.7ZM50.5575 1123.59H93.8925V1182.91H50.5575V1123.59ZM50.5575 1189.49H93.8925V1248.81H50.5575V1189.49ZM50.5575 1255.4H93.8925V1314.71H50.5575V1255.4ZM50.5575 1321.3H93.8925V1380.6H50.5575V1321.3ZM50.5575 1387.2H93.8925V1446.51H50.5575V1387.2ZM50.5575 1453.1H93.8925V1512.41H50.5575V1453.1ZM50.5575 1518.99H93.8925V1578.31H50.5575V1518.99ZM50.5575 1584.9H93.8925V1644.21H50.5575V1584.9ZM50.5575 1650.8H93.8925V1710.1H50.5575V1650.8ZM50.5575 1716.7H93.8925V1776.01H50.5575V1716.7ZM50.5575 1782.6H93.8925V1841.91H50.5575V1782.6ZM50.5575 1848.49H93.8925V1907.81H50.5575V1848.49ZM50.5575 1914.4H93.8925V1973.71H50.5575V1914.4ZM50.5575 1980.3H93.8925V2039.61H50.5575V1980.3ZM50.5575 2046.2H93.8925V2105.51H50.5575V2046.2ZM50.5575 2112.09H93.8925V2171.41H50.5575V2112.09ZM50.5575 2178H93.8925V2237.3H50.5575V2178ZM50.5575 2243.9H93.8925V2303.21H50.5575V2243.9ZM50.5575 2309.8H93.8925V2369.1H50.5575V2309.8ZM50.5575 2375.7H93.8925V2435.01H50.5575V2375.7ZM50.5575 2441.59H93.8925V2500.91H50.5575V2441.59ZM50.5575 2507.5H93.8925V2566.81H50.5575V2507.5ZM50.5575 2573.4H93.8925V2632.71H50.5575V2573.4ZM2.4075 3.295H45.7425V62.605H2.4075V3.295ZM2.4075 69.195H45.7425V128.505H2.4075V69.195ZM2.4075 135.095H45.7425V194.405H2.4075V135.095ZM2.4075 200.995H45.7425V260.305H2.4075V200.995ZM2.4075 266.895H45.7425V326.205H2.4075V266.895ZM2.4075 332.795H45.7425V392.105H2.4075V332.795ZM2.4075 398.695H45.7425V458.005H2.4075V398.695ZM2.4075 464.595H45.7425V523.905H2.4075V464.595ZM2.4075 530.495H45.7425V589.805H2.4075V530.495ZM2.4075 596.395H45.7425V655.705H2.4075V596.395ZM2.4075 662.295H45.7425V721.605H2.4075V662.295ZM2.4075 728.195H45.7425V787.505H2.4075V728.195ZM2.4075 794.095H45.7425V853.405H2.4075V794.095ZM2.4075 859.995H45.7425V919.305H2.4075V859.995ZM2.4075 925.895H45.7425V985.205H2.4075V925.895ZM2.4075 991.795H45.7425V1051.1H2.4075V991.795ZM2.4075 1057.7H45.7425V1117.01H2.4075V1057.7ZM2.4075 1123.59H45.7425V1182.91H2.4075V1123.59ZM2.4075 1189.49H45.7425V1248.81H2.4075V1189.49ZM2.4075 1255.4H45.7425V1314.71H2.4075V1255.4ZM2.4075 1321.3H45.7425V1380.6H2.4075V1321.3ZM2.4075 1387.2H45.7425V1446.51H2.4075V1387.2ZM2.4075 1453.1H45.7425V1512.41H2.4075V1453.1ZM2.4075 1518.99H45.7425V1578.31H2.4075V1518.99ZM2.4075 1584.9H45.7425V1644.21H2.4075V1584.9ZM2.4075 1650.8H45.7425V1710.1H2.4075V1650.8ZM2.4075 1716.7H45.7425V1776.01H2.4075V1716.7ZM2.4075 1782.6H45.7425V1841.91H2.4075V1782.6ZM2.4075 1848.49H45.7425V1907.81H2.4075V1848.49ZM2.4075 1914.4H45.7425V1973.71H2.4075V1914.4ZM2.4075 1980.3H45.7425V2039.61H2.4075V1980.3ZM2.4075 2046.2H45.7425V2105.51H2.4075V2046.2ZM2.4075 2112.09H45.7425V2171.41H2.4075V2112.09ZM2.4075 2178H45.7425V2237.3H2.4075V2178ZM2.4075 2243.9H45.7425V2303.21H2.4075V2243.9ZM2.4075 2309.8H45.7425V2369.1H2.4075V2309.8ZM2.4075 2375.7H45.7425V2435.01H2.4075V2375.7ZM2.4075 2441.59H45.7425V2500.91H2.4075V2441.59ZM2.4075 2507.5H45.7425V2566.81H2.4075V2507.5ZM2.4075 2573.4H45.7425V2632.71H2.4075V2573.4Z" fill="#F0F8FF" fill-opacity="0.4"/>
</svg>
