<svg width="35" height="25" viewBox="0 0 35 25" fill="none" xmlns="http://www.w3.org/2000/svg">
<path d="M32.9631 2.72124C31.7532 1.30052 29.524 0.717773 25.2552 0.717773H9.77429C5.41201 0.717773 3.14049 1.33449 1.93594 2.84667C0.760498 4.32488 0.760498 6.49734 0.760498 9.50428V15.2351C0.760498 21.059 2.15463 24.0163 9.77429 24.0163H25.2552C28.9535 24.0163 31.0028 23.505 32.3291 22.2515C33.6888 20.9658 34.269 18.8674 34.269 15.2342V9.50428C34.269 6.3327 34.1808 4.14719 32.9631 2.72124ZM22.2765 13.1628L15.2468 16.7925C15.082 16.8776 14.8979 16.9193 14.712 16.9135C14.5262 16.9078 14.3451 16.8548 14.186 16.7597C14.027 16.6646 13.8955 16.5306 13.8042 16.3707C13.7129 16.2107 13.6649 16.0302 13.6648 15.8465V8.60707C13.6648 8.42366 13.7126 8.24333 13.8037 8.08348C13.8947 7.92362 14.0259 7.78962 14.1846 7.6944C14.3433 7.59917 14.5241 7.54592 14.7097 7.53978C14.8953 7.53364 15.0793 7.57482 15.2441 7.65935L22.2739 11.2656C22.4491 11.3559 22.5959 11.4919 22.6983 11.6588C22.8008 11.8257 22.8549 12.0172 22.8549 12.2124C22.8549 12.4077 22.8008 12.5991 22.6983 12.7661C22.5959 12.933 22.4491 13.069 22.2739 13.1593L22.2765 13.1628Z" fill="#838383"/>
</svg>
