<svg width="52" height="81" viewBox="0 0 52 81" fill="none" xmlns="http://www.w3.org/2000/svg">
<path fill-rule="evenodd" clip-rule="evenodd" d="M8.3697 0.561775L34.7792 0.543825V14.3235L8.3697 14.3415C7.17688 14.3433 6.01494 13.8338 5.054 12.8875L0.773069 8.65729C0.632613 8.51819 0.518477 8.33693 0.439828 8.12807C0.361178 7.9192 0.320208 7.68854 0.320208 7.45463C0.320208 7.22071 0.361178 6.99006 0.439828 6.78119C0.518477 6.57232 0.632613 6.39106 0.773069 6.25197L5.05846 2.01574C6.0164 1.06977 7.17496 0.558258 8.36523 0.555792L8.3697 0.561775ZM45.6513 14.3116L40.3649 14.3176V0.537842H45.6513H45.6692C48.5023 0.597676 50.6696 3.96632 50.6696 7.41873C50.6696 10.8771 48.5023 14.2517 45.6692 14.3116H45.6513ZM19.148 28.1332C20.645 28.935 21.9185 29.8145 23.0223 30.6881V80.8767C21.3194 79.1632 19.4566 77.7552 17.4812 76.6883C14.1968 74.9292 9.46004 73.4752 2.2343 73.4752C1.64173 73.4752 1.07343 73.16 0.654412 72.599C0.235399 72.0379 0 71.277 0 70.4835V27.475C0 26.6816 0.235399 25.9206 0.654412 25.3596C1.07343 24.7985 1.64173 24.4833 2.2343 24.4833C9.92031 24.4833 15.238 26.033 19.148 28.1332ZM34.1446 76.6883C31.7316 77.9867 30.038 79.4766 28.6036 80.8707V30.6821C29.7073 29.8085 30.9853 28.929 32.4823 28.1272C36.3923 26.027 41.71 24.4773 49.396 24.4773C49.9886 24.4773 50.5569 24.7925 50.9759 25.3536C51.3949 25.9146 51.6303 26.6756 51.6303 27.469V70.4776C51.6303 71.271 51.3949 72.032 50.9759 72.593C50.5569 73.1541 49.9886 73.4693 49.396 73.4693C42.1703 73.4693 37.4335 74.9232 34.1446 76.6883Z" fill="white"></path>
</svg>
