<svg width="79" height="81" viewBox="0 0 79 81" fill="none" xmlns="http://www.w3.org/2000/svg">
<path fill-rule="evenodd" clip-rule="evenodd" d="M6.4466 24.2885C1.53827 28.4122 0.735654 29.1634 0.501556 29.8786C0.174848 30.9153 0.853989 31.8465 2.99688 33.2845C5.75717 35.1419 9.62107 38.5042 13.485 42.3886C15.5918 44.5264 18.4267 47.3073 19.7516 48.5626C22.6379 51.2329 29.2364 59.3903 32.2848 63.9668C34.0933 66.6962 38.4562 74.0844 40.6017 78.0178C41.7207 80.1066 42.2069 80.4513 43.2205 79.9188C43.6141 79.7079 51.6557 73.2741 61.0968 65.608L78.2914 51.6702L78.384 50.8239L78.492 49.9981L76.9202 49.0488C74.7079 47.6983 69.8253 43.6826 65.7582 39.8521C55.6585 30.4008 44.0746 15.0378 39.0453 4.45968C37.6227 1.42156 37.1983 0.85047 36.5166 0.835035C36.1873 0.8196 32.9253 3.2326 26.0825 8.49079C15.6227 16.553 15.4735 16.6739 6.4466 24.2885ZM26.5147 11.3437C31.7188 7.36918 36.0432 4.13554 36.1204 4.14326C36.2362 4.15612 36.8047 5.21086 37.4221 6.50483C40.4113 12.7123 43.1665 17.1421 48.507 24.3065C53.0835 30.4342 55.6714 33.3437 62.4937 40.1608C67.0264 44.7039 70.3115 47.477 73.7792 49.6457L75.2018 50.5409L70.08 54.662L64.9787 58.7652L64.068 57.6333C63.1059 56.4371 53.9658 44.0685 48.2317 36.2018C38.6852 23.0692 36.4831 20.5507 34.0701 19.8201C33.3884 19.6297 32.5163 19.5937 32.1716 19.7301C30.2705 20.5558 20.9246 28.7801 20.5388 30.002C20.0963 31.3758 20.6751 33.0556 22.5916 35.8751C24.5879 38.8386 36.8098 53.7231 42.0088 59.488C43.8353 61.4972 46.6728 64.8054 48.3269 66.8171L51.3444 70.4366L46.9892 73.9403L42.6571 77.4261L42.369 76.8498C41.7696 75.5379 36.9565 67.1052 35.2586 64.4298C32.0713 59.3311 27.1038 52.6735 24.3564 49.7871C16.9604 41.9925 6.59066 32.6852 3.07148 30.6272C2.81423 30.4831 3.76606 29.611 7.5785 26.4391C10.2282 24.2705 13.4592 21.6028 14.7275 20.5121C16.0112 19.4394 21.3311 15.3028 26.5147 11.3437ZM33.7203 21.788C34.4148 21.8626 41.093 30.3416 47.6632 39.4688C51.3727 44.6061 56.4303 51.3306 58.8819 54.4202L63.376 60.0514L60.7084 62.1969C59.2369 63.3828 56.8547 65.4022 55.4064 66.7065C53.423 68.4789 52.7465 68.9523 52.7156 68.695C52.6822 68.4763 49.3456 64.3758 45.2682 59.5678C30.8828 42.5584 29.5554 40.9532 25.9822 36.1632C23.9936 33.4724 22.3395 31.1134 22.3061 30.8947C22.2803 30.5989 23.51 29.5055 27.8292 26.1356C30.8982 23.7431 33.5453 21.788 33.7203 21.788Z" fill="#027CB3"></path>
</svg>
