<svg width="31" height="30" viewBox="0 0 31 30" fill="none" xmlns="http://www.w3.org/2000/svg">
<path d="M21.8589 0.358398H9.78967C7.43127 0.361165 5.17025 1.28786 3.50261 2.93522C1.83496 4.58257 0.896843 6.81606 0.894043 9.14577L0.894043 21.0681C0.896843 23.3978 1.83496 25.6313 3.50261 27.2787C5.17025 28.926 7.43127 29.8527 9.78967 29.8555H21.8589C24.2173 29.8527 26.4783 28.926 28.146 27.2787C29.8136 25.6313 30.7517 23.3978 30.7545 21.0681V9.14577C30.7517 6.81606 29.8136 4.58257 28.146 2.93522C26.4783 1.28786 24.2173 0.361165 21.8589 0.358398V0.358398ZM27.7502 21.0681C27.7502 22.6116 27.1295 24.0918 26.0247 25.1832C24.9199 26.2746 23.4214 26.8878 21.8589 26.8878H9.78967C8.2272 26.8878 6.72871 26.2746 5.62388 25.1832C4.51904 24.0918 3.89835 22.6116 3.89835 21.0681V9.14577C3.89835 7.60231 4.51904 6.12206 5.62388 5.03067C6.72871 3.93928 8.2272 3.32614 9.78967 3.32614H21.8589C23.4214 3.32614 24.9199 3.93928 26.0247 5.03067C27.1295 6.12206 27.7502 7.60231 27.7502 9.14577V21.0681Z" fill="#838383"></path>
<path d="M15.8239 7.47754C14.2965 7.47754 12.8033 7.92496 11.5333 8.76323C10.2633 9.60149 9.27346 10.793 8.68893 12.187C8.10441 13.5809 7.95149 15.1148 8.24947 16.5947C8.54746 18.0746 9.28298 19.4339 10.363 20.5008C11.4431 21.5677 12.8192 22.2943 14.3173 22.5886C15.8153 22.883 17.3681 22.7319 18.7793 22.1545C20.1905 21.5771 21.3966 20.5993 22.2452 19.3448C23.0938 18.0902 23.5467 16.6152 23.5467 15.1064C23.5444 13.0838 22.73 11.1447 21.2822 9.71453C19.8344 8.28434 17.8714 7.47984 15.8239 7.47754ZM15.8239 19.7684C14.8905 19.7684 13.978 19.4949 13.2019 18.9827C12.4258 18.4704 11.8209 17.7423 11.4637 16.8904C11.1065 16.0386 11.0131 15.1012 11.1952 14.1969C11.3773 13.2926 11.8268 12.4619 12.4868 11.8099C13.1468 11.1579 13.9877 10.7139 14.9032 10.534C15.8187 10.3541 16.7676 10.4464 17.6299 10.7993C18.4923 11.1521 19.2294 11.7497 19.748 12.5163C20.2665 13.283 20.5433 14.1843 20.5433 15.1064C20.5433 16.3428 20.0461 17.5286 19.161 18.4029C18.276 19.2772 17.0756 19.7684 15.8239 19.7684Z" fill="#838383"></path>
<path d="M23.5628 9.36477C24.585 9.36477 25.4137 8.54617 25.4137 7.53639C25.4137 6.5266 24.585 5.70801 23.5628 5.70801C22.5406 5.70801 21.7119 6.5266 21.7119 7.53639C21.7119 8.54617 22.5406 9.36477 23.5628 9.36477Z" fill="#838383"></path>
</svg>
